<svg width="588" height="470" viewBox="0 0 588 470" fill="none" xmlns="http://www.w3.org/2000/svg">
<rect width="588" height="470" rx="20" fill="#092581"/>
<circle cx="575.712" cy="454.962" r="1.74121" transform="rotate(180 575.712 454.962)" fill="white"/>
<circle cx="575.712" cy="439.639" r="1.74121" transform="rotate(180 575.712 439.639)" fill="white"/>
<circle cx="575.712" cy="424.316" r="1.74121" transform="rotate(180 575.712 424.316)" fill="white"/>
<circle cx="575.712" cy="394.716" r="1.74121" transform="rotate(180 575.712 394.716)" fill="white"/>
<circle cx="575.712" cy="409.342" r="1.74121" transform="rotate(180 575.712 409.342)" fill="white"/>
<circle cx="575.712" cy="379.741" r="1.74121" transform="rotate(180 575.712 379.741)" fill="white"/>
<circle cx="560.39" cy="454.962" r="1.74121" transform="rotate(180 560.39 454.962)" fill="white"/>
<circle cx="560.39" cy="439.638" r="1.74121" transform="rotate(180 560.39 439.638)" fill="white"/>
<circle cx="560.39" cy="424.316" r="1.74121" transform="rotate(180 560.39 424.316)" fill="white"/>
<circle cx="560.39" cy="394.716" r="1.74121" transform="rotate(180 560.39 394.716)" fill="white"/>
<circle cx="560.39" cy="409.342" r="1.74121" transform="rotate(180 560.39 409.342)" fill="white"/>
<circle cx="560.39" cy="379.741" r="1.74121" transform="rotate(180 560.39 379.741)" fill="white"/>
<circle cx="545.067" cy="454.962" r="1.74121" transform="rotate(180 545.067 454.962)" fill="white"/>
<circle cx="545.067" cy="439.638" r="1.74121" transform="rotate(180 545.067 439.638)" fill="white"/>
<circle cx="545.067" cy="424.316" r="1.74121" transform="rotate(180 545.067 424.316)" fill="white"/>
<circle cx="545.067" cy="394.716" r="1.74121" transform="rotate(180 545.067 394.716)" fill="white"/>
<circle cx="545.067" cy="409.342" r="1.74121" transform="rotate(180 545.067 409.342)" fill="white"/>
<circle cx="545.067" cy="379.741" r="1.74121" transform="rotate(180 545.067 379.741)" fill="white"/>
<circle cx="529.743" cy="454.962" r="1.74121" transform="rotate(180 529.743 454.962)" fill="white"/>
<circle cx="529.743" cy="439.638" r="1.74121" transform="rotate(180 529.743 439.638)" fill="white"/>
<circle cx="529.743" cy="424.316" r="1.74121" transform="rotate(180 529.743 424.316)" fill="white"/>
<circle cx="529.743" cy="394.716" r="1.74121" transform="rotate(180 529.743 394.716)" fill="white"/>
<circle cx="529.743" cy="409.342" r="1.74121" transform="rotate(180 529.743 409.342)" fill="white"/>
<circle cx="529.743" cy="379.741" r="1.74121" transform="rotate(180 529.743 379.741)" fill="white"/>
<circle cx="59.7119" cy="89.9617" r="1.74121" transform="rotate(180 59.7119 89.9617)" fill="white"/>
<circle cx="59.7119" cy="74.6385" r="1.74121" transform="rotate(180 59.7119 74.6385)" fill="white"/>
<circle cx="59.7119" cy="59.3163" r="1.74121" transform="rotate(180 59.7119 59.3163)" fill="white"/>
<circle cx="59.7119" cy="29.7159" r="1.74121" transform="rotate(180 59.7119 29.7159)" fill="white"/>
<circle cx="59.7119" cy="44.3421" r="1.74121" transform="rotate(180 59.7119 44.3421)" fill="white"/>
<circle cx="59.7119" cy="14.7412" r="1.74121" transform="rotate(180 59.7119 14.7412)" fill="white"/>
<circle cx="44.3896" cy="89.9617" r="1.74121" transform="rotate(180 44.3896 89.9617)" fill="white"/>
<circle cx="44.3896" cy="74.6384" r="1.74121" transform="rotate(180 44.3896 74.6384)" fill="white"/>
<circle cx="44.3896" cy="59.3162" r="1.74121" transform="rotate(180 44.3896 59.3162)" fill="white"/>
<circle cx="44.3896" cy="29.7161" r="1.74121" transform="rotate(180 44.3896 29.7161)" fill="white"/>
<circle cx="44.3896" cy="44.342" r="1.74121" transform="rotate(180 44.3896 44.342)" fill="white"/>
<circle cx="44.3896" cy="14.7415" r="1.74121" transform="rotate(180 44.3896 14.7415)" fill="white"/>
<circle cx="29.0674" cy="89.9617" r="1.74121" transform="rotate(180 29.0674 89.9617)" fill="white"/>
<circle cx="29.0674" cy="74.6384" r="1.74121" transform="rotate(180 29.0674 74.6384)" fill="white"/>
<circle cx="29.0674" cy="59.3162" r="1.74121" transform="rotate(180 29.0674 59.3162)" fill="white"/>
<circle cx="29.0674" cy="29.7161" r="1.74121" transform="rotate(180 29.0674 29.7161)" fill="white"/>
<circle cx="29.0674" cy="44.342" r="1.74121" transform="rotate(180 29.0674 44.342)" fill="white"/>
<circle cx="29.0674" cy="14.7415" r="1.74121" transform="rotate(180 29.0674 14.7415)" fill="white"/>
<circle cx="13.7432" cy="89.9617" r="1.74121" transform="rotate(180 13.7432 89.9617)" fill="white"/>
<circle cx="13.7432" cy="74.6384" r="1.74121" transform="rotate(180 13.7432 74.6384)" fill="white"/>
<circle cx="13.7432" cy="59.3162" r="1.74121" transform="rotate(180 13.7432 59.3162)" fill="white"/>
<circle cx="13.7432" cy="29.7161" r="1.74121" transform="rotate(180 13.7432 29.7161)" fill="white"/>
<circle cx="13.7432" cy="44.342" r="1.74121" transform="rotate(180 13.7432 44.342)" fill="white"/>
<circle cx="13.7432" cy="14.7415" r="1.74121" transform="rotate(180 13.7432 14.7415)" fill="white"/>
<path d="M198.794 182.216V170.107L229.156 122.273H239.597V139.034H233.418L214.277 169.325V169.893H257.423V182.216H198.794ZM233.702 195V178.523L233.986 173.161V122.273H248.403V195H233.702ZM296.184 196.598C290.076 196.574 284.82 195.071 280.417 192.088C276.037 189.105 272.664 184.785 270.296 179.126C267.952 173.468 266.792 166.662 266.816 158.707C266.816 150.777 267.988 144.018 270.332 138.43C272.699 132.843 276.073 128.594 280.452 125.682C284.856 122.746 290.1 121.278 296.184 121.278C302.268 121.278 307.5 122.746 311.88 125.682C316.283 128.617 319.669 132.879 322.036 138.466C324.404 144.029 325.576 150.777 325.552 158.707C325.552 166.686 324.368 173.504 322.001 179.162C319.657 184.82 316.295 189.141 311.915 192.124C307.536 195.107 302.292 196.598 296.184 196.598ZM296.184 183.849C300.351 183.849 303.677 181.754 306.163 177.564C308.648 173.374 309.879 167.088 309.856 158.707C309.856 153.191 309.288 148.598 308.151 144.929C307.039 141.259 305.452 138.501 303.393 136.655C301.357 134.808 298.954 133.885 296.184 133.885C292.041 133.885 288.727 135.956 286.241 140.099C283.755 144.242 282.5 150.445 282.477 158.707C282.477 164.295 283.033 168.958 284.146 172.699C285.282 176.416 286.88 179.209 288.94 181.08C290.999 182.926 293.414 183.849 296.184 183.849ZM335.415 182.216V170.107L365.777 122.273H376.218V139.034H370.039L350.898 169.325V169.893H394.044V182.216H335.415ZM370.323 195V178.523L370.607 173.161V122.273H385.025V195H370.323Z" fill="white"/>
<path d="M169.722 255V237.545H172.884V244.935H180.972V237.545H184.142V255H180.972V247.585H172.884V255H169.722ZM191.212 255.264C190.382 255.264 189.635 255.116 188.97 254.821C188.311 254.52 187.788 254.077 187.402 253.491C187.021 252.906 186.831 252.185 186.831 251.327C186.831 250.588 186.967 249.977 187.24 249.494C187.513 249.011 187.885 248.625 188.357 248.335C188.828 248.045 189.359 247.827 189.95 247.679C190.547 247.526 191.163 247.415 191.8 247.347C192.567 247.267 193.189 247.196 193.666 247.134C194.143 247.065 194.49 246.963 194.706 246.827C194.928 246.685 195.038 246.466 195.038 246.17V246.119C195.038 245.477 194.848 244.98 194.467 244.628C194.087 244.276 193.538 244.099 192.822 244.099C192.067 244.099 191.467 244.264 191.024 244.594C190.587 244.923 190.291 245.312 190.138 245.761L187.257 245.352C187.484 244.557 187.859 243.892 188.382 243.358C188.905 242.818 189.544 242.415 190.3 242.148C191.055 241.875 191.891 241.739 192.805 241.739C193.436 241.739 194.064 241.812 194.689 241.96C195.314 242.108 195.885 242.352 196.402 242.693C196.919 243.028 197.334 243.486 197.646 244.065C197.964 244.645 198.124 245.369 198.124 246.239V255H195.158V253.202H195.055C194.868 253.565 194.604 253.906 194.263 254.224C193.928 254.537 193.504 254.79 192.993 254.983C192.487 255.17 191.893 255.264 191.212 255.264ZM192.013 252.997C192.632 252.997 193.169 252.875 193.624 252.631C194.078 252.381 194.428 252.051 194.672 251.642C194.922 251.233 195.047 250.787 195.047 250.304V248.761C194.95 248.841 194.786 248.915 194.553 248.983C194.325 249.051 194.07 249.111 193.786 249.162C193.501 249.213 193.22 249.259 192.942 249.298C192.663 249.338 192.422 249.372 192.217 249.401C191.757 249.463 191.345 249.565 190.982 249.707C190.618 249.849 190.331 250.048 190.121 250.304C189.911 250.554 189.805 250.878 189.805 251.276C189.805 251.844 190.013 252.273 190.428 252.562C190.842 252.852 191.371 252.997 192.013 252.997ZM204.311 237.545V255H201.226V237.545H204.311ZM211.251 255.264C210.421 255.264 209.674 255.116 209.009 254.821C208.35 254.52 207.827 254.077 207.441 253.491C207.06 252.906 206.87 252.185 206.87 251.327C206.87 250.588 207.006 249.977 207.279 249.494C207.552 249.011 207.924 248.625 208.396 248.335C208.867 248.045 209.398 247.827 209.989 247.679C210.586 247.526 211.202 247.415 211.839 247.347C212.606 247.267 213.228 247.196 213.705 247.134C214.183 247.065 214.529 246.963 214.745 246.827C214.967 246.685 215.077 246.466 215.077 246.17V246.119C215.077 245.477 214.887 244.98 214.506 244.628C214.126 244.276 213.577 244.099 212.862 244.099C212.106 244.099 211.506 244.264 211.063 244.594C210.626 244.923 210.33 245.312 210.177 245.761L207.296 245.352C207.523 244.557 207.898 243.892 208.421 243.358C208.944 242.818 209.583 242.415 210.339 242.148C211.094 241.875 211.93 241.739 212.844 241.739C213.475 241.739 214.103 241.812 214.728 241.96C215.353 242.108 215.924 242.352 216.441 242.693C216.958 243.028 217.373 243.486 217.685 244.065C218.004 244.645 218.163 245.369 218.163 246.239V255H215.197V253.202H215.094C214.907 253.565 214.643 253.906 214.302 254.224C213.967 254.537 213.543 254.79 213.032 254.983C212.526 255.17 211.933 255.264 211.251 255.264ZM212.052 252.997C212.671 252.997 213.208 252.875 213.663 252.631C214.117 252.381 214.467 252.051 214.711 251.642C214.961 251.233 215.086 250.787 215.086 250.304V248.761C214.989 248.841 214.825 248.915 214.592 248.983C214.364 249.051 214.109 249.111 213.825 249.162C213.54 249.213 213.259 249.259 212.981 249.298C212.702 249.338 212.461 249.372 212.256 249.401C211.796 249.463 211.384 249.565 211.021 249.707C210.657 249.849 210.37 250.048 210.16 250.304C209.95 250.554 209.844 250.878 209.844 251.276C209.844 251.844 210.052 252.273 210.467 252.562C210.881 252.852 211.41 252.997 212.052 252.997ZM221.265 255V241.909H224.214V244.134H224.367C224.64 243.384 225.092 242.798 225.722 242.378C226.353 241.952 227.106 241.739 227.981 241.739C228.867 241.739 229.614 241.955 230.222 242.386C230.836 242.812 231.268 243.395 231.518 244.134H231.654C231.944 243.406 232.433 242.827 233.12 242.395C233.813 241.957 234.634 241.739 235.583 241.739C236.788 241.739 237.771 242.119 238.532 242.881C239.293 243.642 239.674 244.753 239.674 246.213V255H236.58V246.69C236.58 245.878 236.364 245.284 235.933 244.909C235.501 244.528 234.972 244.338 234.347 244.338C233.603 244.338 233.021 244.571 232.6 245.037C232.185 245.497 231.978 246.097 231.978 246.835V255H228.952V246.562C228.952 245.886 228.748 245.347 228.339 244.943C227.935 244.54 227.407 244.338 226.754 244.338C226.31 244.338 225.907 244.452 225.543 244.679C225.18 244.901 224.89 245.216 224.674 245.625C224.458 246.028 224.35 246.5 224.35 247.04V255H221.265ZM246.571 255.264C245.741 255.264 244.994 255.116 244.33 254.821C243.67 254.52 243.148 254.077 242.761 253.491C242.381 252.906 242.19 252.185 242.19 251.327C242.19 250.588 242.327 249.977 242.599 249.494C242.872 249.011 243.244 248.625 243.716 248.335C244.188 248.045 244.719 247.827 245.31 247.679C245.906 247.526 246.523 247.415 247.159 247.347C247.926 247.267 248.548 247.196 249.026 247.134C249.503 247.065 249.849 246.963 250.065 246.827C250.287 246.685 250.398 246.466 250.398 246.17V246.119C250.398 245.477 250.207 244.98 249.827 244.628C249.446 244.276 248.898 244.099 248.182 244.099C247.426 244.099 246.827 244.264 246.384 244.594C245.946 244.923 245.651 245.312 245.497 245.761L242.616 245.352C242.844 244.557 243.219 243.892 243.741 243.358C244.264 242.818 244.903 242.415 245.659 242.148C246.415 241.875 247.25 241.739 248.165 241.739C248.795 241.739 249.423 241.812 250.048 241.96C250.673 242.108 251.244 242.352 251.761 242.693C252.278 243.028 252.693 243.486 253.006 244.065C253.324 244.645 253.483 245.369 253.483 246.239V255H250.517V253.202H250.415C250.227 253.565 249.963 253.906 249.622 254.224C249.287 254.537 248.864 254.79 248.352 254.983C247.847 255.17 247.253 255.264 246.571 255.264ZM247.372 252.997C247.991 252.997 248.528 252.875 248.983 252.631C249.438 252.381 249.787 252.051 250.031 251.642C250.281 251.233 250.406 250.787 250.406 250.304V248.761C250.31 248.841 250.145 248.915 249.912 248.983C249.685 249.051 249.429 249.111 249.145 249.162C248.861 249.213 248.58 249.259 248.301 249.298C248.023 249.338 247.781 249.372 247.577 249.401C247.116 249.463 246.705 249.565 246.341 249.707C245.977 249.849 245.69 250.048 245.48 250.304C245.27 250.554 245.165 250.878 245.165 251.276C245.165 251.844 245.372 252.273 245.787 252.562C246.202 252.852 246.73 252.997 247.372 252.997ZM259.67 247.33V255H256.585V241.909H259.534V244.134H259.688C259.989 243.401 260.469 242.818 261.128 242.386C261.793 241.955 262.614 241.739 263.591 241.739C264.494 241.739 265.281 241.932 265.952 242.318C266.628 242.705 267.151 243.264 267.52 243.997C267.895 244.73 268.08 245.619 268.074 246.665V255H264.989V247.142C264.989 246.267 264.761 245.582 264.307 245.088C263.858 244.594 263.236 244.347 262.44 244.347C261.901 244.347 261.42 244.466 261 244.705C260.585 244.937 260.259 245.276 260.02 245.719C259.787 246.162 259.67 246.699 259.67 247.33ZM277.3 255V237.545H283.982C285.243 237.545 286.291 237.744 287.126 238.142C287.967 238.534 288.595 239.071 289.01 239.753C289.43 240.435 289.641 241.207 289.641 242.071C289.641 242.781 289.504 243.389 289.232 243.895C288.959 244.395 288.592 244.801 288.132 245.114C287.672 245.426 287.158 245.651 286.589 245.787V245.957C287.209 245.991 287.803 246.182 288.371 246.528C288.945 246.869 289.413 247.352 289.777 247.977C290.141 248.602 290.322 249.358 290.322 250.244C290.322 251.148 290.104 251.96 289.666 252.682C289.229 253.398 288.57 253.963 287.689 254.378C286.808 254.793 285.7 255 284.365 255H277.3ZM280.462 252.358H283.862C285.01 252.358 285.837 252.139 286.342 251.702C286.854 251.259 287.109 250.69 287.109 249.997C287.109 249.48 286.982 249.014 286.726 248.599C286.47 248.179 286.107 247.849 285.635 247.611C285.163 247.366 284.601 247.244 283.947 247.244H280.462V252.358ZM280.462 244.969H283.589C284.135 244.969 284.626 244.869 285.064 244.67C285.501 244.466 285.845 244.179 286.095 243.81C286.351 243.435 286.479 242.991 286.479 242.48C286.479 241.804 286.24 241.247 285.763 240.81C285.291 240.372 284.589 240.153 283.658 240.153H280.462V244.969ZM298.732 255.256C297.42 255.256 296.286 254.983 295.332 254.438C294.383 253.886 293.653 253.108 293.141 252.102C292.63 251.091 292.374 249.901 292.374 248.531C292.374 247.185 292.63 246.003 293.141 244.986C293.658 243.963 294.38 243.168 295.306 242.599C296.232 242.026 297.32 241.739 298.57 241.739C299.377 241.739 300.138 241.869 300.854 242.131C301.576 242.386 302.212 242.784 302.763 243.324C303.32 243.864 303.758 244.551 304.076 245.386C304.394 246.216 304.553 247.205 304.553 248.352V249.298H293.823V247.219H301.596C301.59 246.628 301.462 246.102 301.212 245.642C300.962 245.176 300.613 244.81 300.164 244.543C299.721 244.276 299.204 244.142 298.613 244.142C297.982 244.142 297.428 244.295 296.951 244.602C296.474 244.903 296.102 245.301 295.835 245.795C295.573 246.284 295.44 246.821 295.434 247.406V249.222C295.434 249.983 295.573 250.636 295.852 251.182C296.13 251.722 296.519 252.136 297.019 252.426C297.519 252.71 298.104 252.852 298.775 252.852C299.224 252.852 299.63 252.79 299.994 252.665C300.357 252.534 300.673 252.344 300.94 252.094C301.207 251.844 301.408 251.534 301.545 251.165L304.425 251.489C304.244 252.25 303.897 252.915 303.386 253.483C302.88 254.045 302.232 254.483 301.442 254.795C300.653 255.102 299.749 255.256 298.732 255.256ZM307.163 255V241.909H310.155V244.091H310.291C310.53 243.335 310.939 242.753 311.518 242.344C312.104 241.929 312.771 241.722 313.521 241.722C313.692 241.722 313.882 241.73 314.092 241.747C314.308 241.759 314.487 241.778 314.629 241.807V244.645C314.499 244.599 314.291 244.56 314.007 244.526C313.729 244.486 313.459 244.466 313.197 244.466C312.635 244.466 312.129 244.588 311.68 244.832C311.237 245.071 310.888 245.403 310.632 245.83C310.376 246.256 310.249 246.747 310.249 247.304V255H307.163ZM316.679 255V241.909H319.628V244.134H319.781C320.054 243.384 320.506 242.798 321.136 242.378C321.767 241.952 322.52 241.739 323.395 241.739C324.281 241.739 325.028 241.955 325.636 242.386C326.25 242.812 326.682 243.395 326.932 244.134H327.068C327.358 243.406 327.847 242.827 328.534 242.395C329.227 241.957 330.048 241.739 330.997 241.739C332.202 241.739 333.185 242.119 333.946 242.881C334.707 243.642 335.088 244.753 335.088 246.213V255H331.994V246.69C331.994 245.878 331.778 245.284 331.347 244.909C330.915 244.528 330.386 244.338 329.761 244.338C329.017 244.338 328.435 244.571 328.014 245.037C327.599 245.497 327.392 246.097 327.392 246.835V255H324.366V246.562C324.366 245.886 324.162 245.347 323.753 244.943C323.349 244.54 322.821 244.338 322.168 244.338C321.724 244.338 321.321 244.452 320.957 244.679C320.594 244.901 320.304 245.216 320.088 245.625C319.872 246.028 319.764 246.5 319.764 247.04V255H316.679ZM341.985 255.264C341.156 255.264 340.408 255.116 339.744 254.821C339.085 254.52 338.562 254.077 338.175 253.491C337.795 252.906 337.604 252.185 337.604 251.327C337.604 250.588 337.741 249.977 338.013 249.494C338.286 249.011 338.658 248.625 339.13 248.335C339.602 248.045 340.133 247.827 340.724 247.679C341.32 247.526 341.937 247.415 342.573 247.347C343.34 247.267 343.962 247.196 344.44 247.134C344.917 247.065 345.263 246.963 345.479 246.827C345.701 246.685 345.812 246.466 345.812 246.17V246.119C345.812 245.477 345.621 244.98 345.241 244.628C344.86 244.276 344.312 244.099 343.596 244.099C342.84 244.099 342.241 244.264 341.798 244.594C341.36 244.923 341.065 245.312 340.911 245.761L338.031 245.352C338.258 244.557 338.633 243.892 339.156 243.358C339.678 242.818 340.317 242.415 341.073 242.148C341.829 241.875 342.664 241.739 343.579 241.739C344.21 241.739 344.837 241.812 345.462 241.96C346.087 242.108 346.658 242.352 347.175 242.693C347.692 243.028 348.107 243.486 348.42 244.065C348.738 244.645 348.897 245.369 348.897 246.239V255H345.931V253.202H345.829C345.641 253.565 345.377 253.906 345.036 254.224C344.701 254.537 344.278 254.79 343.766 254.983C343.261 255.17 342.667 255.264 341.985 255.264ZM342.786 252.997C343.406 252.997 343.942 252.875 344.397 252.631C344.852 252.381 345.201 252.051 345.445 251.642C345.695 251.233 345.82 250.787 345.82 250.304V248.761C345.724 248.841 345.559 248.915 345.326 248.983C345.099 249.051 344.843 249.111 344.559 249.162C344.275 249.213 343.994 249.259 343.715 249.298C343.437 249.338 343.195 249.372 342.991 249.401C342.531 249.463 342.119 249.565 341.755 249.707C341.391 249.849 341.104 250.048 340.894 250.304C340.684 250.554 340.579 250.878 340.579 251.276C340.579 251.844 340.786 252.273 341.201 252.562C341.616 252.852 342.144 252.997 342.786 252.997ZM362.346 245.369L359.533 245.676C359.454 245.392 359.315 245.125 359.116 244.875C358.923 244.625 358.661 244.423 358.332 244.27C358.002 244.116 357.599 244.04 357.121 244.04C356.479 244.04 355.94 244.179 355.502 244.457C355.07 244.736 354.857 245.097 354.863 245.54C354.857 245.92 354.996 246.23 355.281 246.469C355.57 246.707 356.048 246.903 356.712 247.057L358.945 247.534C360.184 247.801 361.104 248.224 361.707 248.804C362.315 249.384 362.621 250.142 362.627 251.08C362.621 251.903 362.38 252.631 361.903 253.261C361.431 253.886 360.775 254.375 359.934 254.727C359.093 255.08 358.127 255.256 357.036 255.256C355.434 255.256 354.144 254.92 353.167 254.25C352.19 253.574 351.607 252.634 351.42 251.429L354.428 251.139C354.565 251.73 354.854 252.176 355.298 252.477C355.741 252.778 356.317 252.929 357.028 252.929C357.761 252.929 358.349 252.778 358.792 252.477C359.241 252.176 359.465 251.804 359.465 251.361C359.465 250.986 359.32 250.676 359.031 250.432C358.746 250.187 358.303 250 357.701 249.869L355.468 249.401C354.212 249.139 353.283 248.699 352.681 248.08C352.079 247.455 351.781 246.665 351.786 245.71C351.781 244.903 351.999 244.205 352.442 243.614C352.891 243.017 353.513 242.557 354.309 242.233C355.11 241.903 356.033 241.739 357.079 241.739C358.613 241.739 359.82 242.065 360.701 242.719C361.587 243.372 362.136 244.256 362.346 245.369ZM368.938 255.264C368.109 255.264 367.362 255.116 366.697 254.821C366.038 254.52 365.515 254.077 365.129 253.491C364.748 252.906 364.558 252.185 364.558 251.327C364.558 250.588 364.694 249.977 364.967 249.494C365.239 249.011 365.612 248.625 366.083 248.335C366.555 248.045 367.086 247.827 367.677 247.679C368.273 247.526 368.89 247.415 369.526 247.347C370.293 247.267 370.915 247.196 371.393 247.134C371.87 247.065 372.217 246.963 372.433 246.827C372.654 246.685 372.765 246.466 372.765 246.17V246.119C372.765 245.477 372.575 244.98 372.194 244.628C371.813 244.276 371.265 244.099 370.549 244.099C369.793 244.099 369.194 244.264 368.751 244.594C368.313 244.923 368.018 245.312 367.864 245.761L364.984 245.352C365.211 244.557 365.586 243.892 366.109 243.358C366.631 242.818 367.271 242.415 368.026 242.148C368.782 241.875 369.617 241.739 370.532 241.739C371.163 241.739 371.79 241.812 372.415 241.96C373.04 242.108 373.612 242.352 374.129 242.693C374.646 243.028 375.06 243.486 375.373 244.065C375.691 244.645 375.85 245.369 375.85 246.239V255H372.884V253.202H372.782C372.594 253.565 372.33 253.906 371.989 254.224C371.654 254.537 371.231 254.79 370.719 254.983C370.214 255.17 369.62 255.264 368.938 255.264ZM369.739 252.997C370.359 252.997 370.896 252.875 371.35 252.631C371.805 252.381 372.154 252.051 372.398 251.642C372.648 251.233 372.773 250.787 372.773 250.304V248.761C372.677 248.841 372.512 248.915 372.279 248.983C372.052 249.051 371.796 249.111 371.512 249.162C371.228 249.213 370.947 249.259 370.668 249.298C370.39 249.338 370.148 249.372 369.944 249.401C369.484 249.463 369.072 249.565 368.708 249.707C368.344 249.849 368.058 250.048 367.847 250.304C367.637 250.554 367.532 250.878 367.532 251.276C367.532 251.844 367.739 252.273 368.154 252.562C368.569 252.852 369.097 252.997 369.739 252.997ZM382.038 237.545V255H378.952V237.545H382.038ZM388.977 255.264C388.148 255.264 387.401 255.116 386.736 254.821C386.077 254.52 385.554 254.077 385.168 253.491C384.787 252.906 384.597 252.185 384.597 251.327C384.597 250.588 384.733 249.977 385.006 249.494C385.278 249.011 385.651 248.625 386.122 248.335C386.594 248.045 387.125 247.827 387.716 247.679C388.313 247.526 388.929 247.415 389.565 247.347C390.332 247.267 390.955 247.196 391.432 247.134C391.909 247.065 392.256 246.963 392.472 246.827C392.693 246.685 392.804 246.466 392.804 246.17V246.119C392.804 245.477 392.614 244.98 392.233 244.628C391.852 244.276 391.304 244.099 390.588 244.099C389.832 244.099 389.233 244.264 388.79 244.594C388.352 244.923 388.057 245.312 387.903 245.761L385.023 245.352C385.25 244.557 385.625 243.892 386.148 243.358C386.67 242.818 387.31 242.415 388.065 242.148C388.821 241.875 389.656 241.739 390.571 241.739C391.202 241.739 391.83 241.812 392.455 241.96C393.08 242.108 393.651 242.352 394.168 242.693C394.685 243.028 395.099 243.486 395.412 244.065C395.73 244.645 395.889 245.369 395.889 246.239V255H392.923V253.202H392.821C392.634 253.565 392.369 253.906 392.028 254.224C391.693 254.537 391.27 254.79 390.759 254.983C390.253 255.17 389.659 255.264 388.977 255.264ZM389.778 252.997C390.398 252.997 390.935 252.875 391.389 252.631C391.844 252.381 392.193 252.051 392.438 251.642C392.688 251.233 392.812 250.787 392.812 250.304V248.761C392.716 248.841 392.551 248.915 392.318 248.983C392.091 249.051 391.835 249.111 391.551 249.162C391.267 249.213 390.986 249.259 390.707 249.298C390.429 249.338 390.188 249.372 389.983 249.401C389.523 249.463 389.111 249.565 388.747 249.707C388.384 249.849 388.097 250.048 387.886 250.304C387.676 250.554 387.571 250.878 387.571 251.276C387.571 251.844 387.778 252.273 388.193 252.562C388.608 252.852 389.136 252.997 389.778 252.997ZM402.077 247.33V255H398.991V237.545H402.009V244.134H402.162C402.469 243.395 402.943 242.812 403.585 242.386C404.233 241.955 405.057 241.739 406.057 241.739C406.966 241.739 407.759 241.929 408.435 242.31C409.111 242.69 409.634 243.247 410.003 243.98C410.378 244.713 410.565 245.608 410.565 246.665V255H407.48V247.142C407.48 246.261 407.253 245.577 406.798 245.088C406.349 244.594 405.719 244.347 404.906 244.347C404.361 244.347 403.872 244.466 403.44 244.705C403.014 244.937 402.679 245.276 402.435 245.719C402.196 246.162 402.077 246.699 402.077 247.33Z" fill="white"/>
<path d="M110.585 287V273.909H112.17V279.739H119.151V273.909H120.736V287H119.151V281.145H112.17V287H110.585ZM126.594 287.23C125.972 287.23 125.407 287.113 124.9 286.879C124.393 286.64 123.99 286.297 123.692 285.849C123.394 285.398 123.245 284.852 123.245 284.213C123.245 283.651 123.355 283.195 123.577 282.845C123.799 282.491 124.095 282.214 124.466 282.014C124.836 281.814 125.245 281.665 125.693 281.567C126.145 281.464 126.598 281.384 127.054 281.324C127.651 281.247 128.135 281.19 128.505 281.151C128.88 281.109 129.153 281.038 129.324 280.94C129.498 280.842 129.586 280.672 129.586 280.429V280.378C129.586 279.747 129.413 279.257 129.068 278.908C128.727 278.558 128.209 278.384 127.515 278.384C126.794 278.384 126.23 278.541 125.821 278.857C125.412 279.172 125.124 279.509 124.958 279.866L123.526 279.355C123.782 278.759 124.123 278.294 124.549 277.962C124.979 277.625 125.448 277.391 125.955 277.259C126.466 277.122 126.969 277.054 127.463 277.054C127.779 277.054 128.141 277.092 128.55 277.169C128.963 277.241 129.362 277.393 129.745 277.623C130.133 277.853 130.455 278.2 130.711 278.665C130.966 279.129 131.094 279.751 131.094 280.531V287H129.586V285.67H129.509C129.407 285.884 129.236 286.112 128.998 286.354C128.759 286.597 128.441 286.804 128.045 286.974C127.649 287.145 127.165 287.23 126.594 287.23ZM126.824 285.875C127.421 285.875 127.924 285.758 128.333 285.523C128.746 285.289 129.057 284.987 129.266 284.616C129.479 284.245 129.586 283.855 129.586 283.446V282.065C129.522 282.142 129.381 282.212 129.164 282.276C128.951 282.336 128.703 282.389 128.422 282.436C128.145 282.479 127.875 282.517 127.61 282.551C127.35 282.581 127.14 282.607 126.978 282.628C126.586 282.679 126.219 282.762 125.878 282.877C125.542 282.988 125.269 283.156 125.06 283.382C124.855 283.604 124.753 283.906 124.753 284.29C124.753 284.814 124.947 285.21 125.335 285.479C125.727 285.743 126.223 285.875 126.824 285.875ZM135.356 273.909V287H133.847V273.909H135.356ZM141.008 287.23C140.386 287.23 139.821 287.113 139.314 286.879C138.807 286.64 138.404 286.297 138.106 285.849C137.808 285.398 137.659 284.852 137.659 284.213C137.659 283.651 137.77 283.195 137.991 282.845C138.213 282.491 138.509 282.214 138.88 282.014C139.25 281.814 139.659 281.665 140.107 281.567C140.559 281.464 141.012 281.384 141.468 281.324C142.065 281.247 142.549 281.19 142.919 281.151C143.294 281.109 143.567 281.038 143.738 280.94C143.912 280.842 144 280.672 144 280.429V280.378C144 279.747 143.827 279.257 143.482 278.908C143.141 278.558 142.623 278.384 141.929 278.384C141.208 278.384 140.644 278.541 140.235 278.857C139.826 279.172 139.538 279.509 139.372 279.866L137.94 279.355C138.196 278.759 138.537 278.294 138.963 277.962C139.393 277.625 139.862 277.391 140.369 277.259C140.88 277.122 141.383 277.054 141.877 277.054C142.193 277.054 142.555 277.092 142.964 277.169C143.377 277.241 143.776 277.393 144.159 277.623C144.547 277.853 144.869 278.2 145.125 278.665C145.38 279.129 145.508 279.751 145.508 280.531V287H144V285.67H143.923C143.821 285.884 143.65 286.112 143.412 286.354C143.173 286.597 142.855 286.804 142.459 286.974C142.063 287.145 141.579 287.23 141.008 287.23ZM141.238 285.875C141.835 285.875 142.338 285.758 142.747 285.523C143.16 285.289 143.471 284.987 143.68 284.616C143.893 284.245 144 283.855 144 283.446V282.065C143.936 282.142 143.795 282.212 143.578 282.276C143.365 282.336 143.118 282.389 142.836 282.436C142.559 282.479 142.289 282.517 142.025 282.551C141.765 282.581 141.554 282.607 141.392 282.628C141 282.679 140.633 282.762 140.292 282.877C139.956 282.988 139.683 283.156 139.474 283.382C139.27 283.604 139.167 283.906 139.167 284.29C139.167 284.814 139.361 285.21 139.749 285.479C140.141 285.743 140.637 285.875 141.238 285.875ZM148.262 287V277.182H149.719V278.716H149.847C150.051 278.192 150.382 277.785 150.838 277.495C151.294 277.201 151.841 277.054 152.48 277.054C153.128 277.054 153.667 277.201 154.097 277.495C154.532 277.785 154.871 278.192 155.114 278.716H155.216C155.468 278.209 155.845 277.806 156.347 277.508C156.85 277.205 157.453 277.054 158.156 277.054C159.034 277.054 159.752 277.329 160.311 277.879C160.869 278.424 161.148 279.274 161.148 280.429V287H159.639V280.429C159.639 279.705 159.441 279.187 159.045 278.876C158.649 278.565 158.182 278.409 157.645 278.409C156.955 278.409 156.42 278.618 156.041 279.036C155.661 279.449 155.472 279.973 155.472 280.608V287H153.938V280.276C153.938 279.717 153.757 279.268 153.394 278.927C153.032 278.582 152.566 278.409 151.994 278.409C151.602 278.409 151.236 278.513 150.895 278.722C150.558 278.931 150.286 279.221 150.077 279.592C149.872 279.958 149.77 280.382 149.77 280.864V287H148.262ZM166.795 287.23C166.173 287.23 165.608 287.113 165.101 286.879C164.594 286.64 164.192 286.297 163.893 285.849C163.595 285.398 163.446 284.852 163.446 284.213C163.446 283.651 163.557 283.195 163.778 282.845C164 282.491 164.296 282.214 164.667 282.014C165.037 281.814 165.447 281.665 165.894 281.567C166.346 281.464 166.8 281.384 167.256 281.324C167.852 281.247 168.336 281.19 168.706 281.151C169.081 281.109 169.354 281.038 169.525 280.94C169.699 280.842 169.787 280.672 169.787 280.429V280.378C169.787 279.747 169.614 279.257 169.269 278.908C168.928 278.558 168.41 278.384 167.716 278.384C166.996 278.384 166.431 278.541 166.022 278.857C165.613 279.172 165.325 279.509 165.159 279.866L163.727 279.355C163.983 278.759 164.324 278.294 164.75 277.962C165.18 277.625 165.649 277.391 166.156 277.259C166.667 277.122 167.17 277.054 167.665 277.054C167.98 277.054 168.342 277.092 168.751 277.169C169.165 277.241 169.563 277.393 169.947 277.623C170.334 277.853 170.656 278.2 170.912 278.665C171.167 279.129 171.295 279.751 171.295 280.531V287H169.787V285.67H169.71C169.608 285.884 169.437 286.112 169.199 286.354C168.96 286.597 168.643 286.804 168.246 286.974C167.85 287.145 167.366 287.23 166.795 287.23ZM167.025 285.875C167.622 285.875 168.125 285.758 168.534 285.523C168.947 285.289 169.258 284.987 169.467 284.616C169.68 284.245 169.787 283.855 169.787 283.446V282.065C169.723 282.142 169.582 282.212 169.365 282.276C169.152 282.336 168.905 282.389 168.623 282.436C168.346 282.479 168.076 282.517 167.812 282.551C167.552 282.581 167.341 282.607 167.179 282.628C166.787 282.679 166.42 282.762 166.079 282.877C165.743 282.988 165.47 283.156 165.261 283.382C165.057 283.604 164.954 283.906 164.954 284.29C164.954 284.814 165.148 285.21 165.536 285.479C165.928 285.743 166.425 285.875 167.025 285.875ZM175.557 281.094V287H174.049V277.182H175.506V278.716H175.634C175.864 278.217 176.213 277.817 176.682 277.514C177.151 277.207 177.756 277.054 178.498 277.054C179.162 277.054 179.744 277.19 180.243 277.463C180.741 277.732 181.129 278.141 181.406 278.69C181.683 279.236 181.821 279.926 181.821 280.761V287H180.313V280.864C180.313 280.092 180.113 279.491 179.712 279.061C179.311 278.626 178.762 278.409 178.063 278.409C177.581 278.409 177.151 278.513 176.772 278.722C176.397 278.931 176.1 279.236 175.883 279.636C175.666 280.037 175.557 280.523 175.557 281.094ZM190.612 290.682C190.356 290.682 190.128 290.661 189.928 290.618C189.728 290.58 189.589 290.541 189.513 290.503L189.896 289.173C190.263 289.267 190.586 289.301 190.868 289.276C191.149 289.25 191.398 289.124 191.616 288.898C191.837 288.677 192.04 288.317 192.223 287.818L192.504 287.051L188.873 277.182H190.51L193.22 285.006H193.322L196.032 277.182H197.669L193.501 288.432C193.314 288.939 193.081 289.359 192.805 289.691C192.528 290.028 192.206 290.277 191.839 290.439C191.477 290.601 191.068 290.682 190.612 290.682ZM202.25 287.23C201.628 287.23 201.064 287.113 200.556 286.879C200.049 286.64 199.647 286.297 199.348 285.849C199.05 285.398 198.901 284.852 198.901 284.213C198.901 283.651 199.012 283.195 199.233 282.845C199.455 282.491 199.751 282.214 200.122 282.014C200.493 281.814 200.902 281.665 201.349 281.567C201.801 281.464 202.255 281.384 202.711 281.324C203.307 281.247 203.791 281.19 204.162 281.151C204.537 281.109 204.809 281.038 204.98 280.94C205.154 280.842 205.242 280.672 205.242 280.429V280.378C205.242 279.747 205.069 279.257 204.724 278.908C204.383 278.558 203.865 278.384 203.171 278.384C202.451 278.384 201.886 278.541 201.477 278.857C201.068 279.172 200.78 279.509 200.614 279.866L199.182 279.355C199.438 278.759 199.779 278.294 200.205 277.962C200.635 277.625 201.104 277.391 201.611 277.259C202.123 277.122 202.625 277.054 203.12 277.054C203.435 277.054 203.797 277.092 204.206 277.169C204.62 277.241 205.018 277.393 205.402 277.623C205.789 277.853 206.111 278.2 206.367 278.665C206.623 279.129 206.75 279.751 206.75 280.531V287H205.242V285.67H205.165C205.063 285.884 204.892 286.112 204.654 286.354C204.415 286.597 204.098 286.804 203.701 286.974C203.305 287.145 202.821 287.23 202.25 287.23ZM202.48 285.875C203.077 285.875 203.58 285.758 203.989 285.523C204.402 285.289 204.713 284.987 204.922 284.616C205.135 284.245 205.242 283.855 205.242 283.446V282.065C205.178 282.142 205.037 282.212 204.82 282.276C204.607 282.336 204.36 282.389 204.078 282.436C203.801 282.479 203.531 282.517 203.267 282.551C203.007 282.581 202.796 282.607 202.634 282.628C202.242 282.679 201.875 282.762 201.534 282.877C201.198 282.988 200.925 283.156 200.716 283.382C200.512 283.604 200.409 283.906 200.409 284.29C200.409 284.814 200.603 285.21 200.991 285.479C201.383 285.743 201.88 285.875 202.48 285.875ZM211.012 281.094V287H209.504V277.182H210.961V278.716H211.089C211.319 278.217 211.669 277.817 212.137 277.514C212.606 277.207 213.211 277.054 213.953 277.054C214.617 277.054 215.199 277.19 215.698 277.463C216.196 277.732 216.584 278.141 216.861 278.69C217.138 279.236 217.276 279.926 217.276 280.761V287H215.768V280.864C215.768 280.092 215.568 279.491 215.167 279.061C214.767 278.626 214.217 278.409 213.518 278.409C213.036 278.409 212.606 278.513 212.227 278.722C211.852 278.931 211.556 279.236 211.338 279.636C211.121 280.037 211.012 280.523 211.012 281.094ZM223.996 290.886C223.267 290.886 222.641 290.793 222.117 290.605C221.593 290.422 221.156 290.179 220.806 289.876C220.461 289.578 220.186 289.259 219.982 288.918L221.184 288.074C221.32 288.253 221.493 288.457 221.701 288.688C221.91 288.922 222.196 289.124 222.558 289.295C222.924 289.469 223.404 289.557 223.996 289.557C224.789 289.557 225.443 289.365 225.958 288.982C226.474 288.598 226.732 287.997 226.732 287.179V285.185H226.604C226.493 285.364 226.336 285.585 226.131 285.849C225.931 286.109 225.641 286.342 225.262 286.546C224.887 286.746 224.38 286.847 223.74 286.847C222.948 286.847 222.236 286.659 221.605 286.284C220.979 285.909 220.483 285.364 220.116 284.648C219.754 283.932 219.573 283.062 219.573 282.04C219.573 281.034 219.75 280.158 220.103 279.413C220.457 278.663 220.949 278.083 221.58 277.674C222.211 277.261 222.939 277.054 223.766 277.054C224.405 277.054 224.912 277.161 225.287 277.374C225.667 277.582 225.956 277.821 226.157 278.089C226.361 278.354 226.519 278.571 226.63 278.741H226.783V277.182H228.24V287.281C228.24 288.125 228.049 288.811 227.665 289.339C227.286 289.872 226.775 290.262 226.131 290.509C225.492 290.761 224.78 290.886 223.996 290.886ZM223.945 285.491C224.55 285.491 225.061 285.353 225.479 285.076C225.897 284.799 226.214 284.401 226.431 283.881C226.649 283.361 226.757 282.739 226.757 282.014C226.757 281.307 226.651 280.683 226.438 280.141C226.225 279.6 225.909 279.176 225.492 278.869C225.074 278.562 224.559 278.409 223.945 278.409C223.306 278.409 222.773 278.571 222.347 278.895C221.925 279.219 221.608 279.653 221.395 280.199C221.186 280.744 221.081 281.349 221.081 282.014C221.081 282.696 221.188 283.299 221.401 283.823C221.618 284.343 221.938 284.752 222.36 285.05C222.786 285.344 223.314 285.491 223.945 285.491ZM238.953 287.23C238.331 287.23 237.767 287.113 237.26 286.879C236.752 286.64 236.35 286.297 236.051 285.849C235.753 285.398 235.604 284.852 235.604 284.213C235.604 283.651 235.715 283.195 235.936 282.845C236.158 282.491 236.454 282.214 236.825 282.014C237.196 281.814 237.605 281.665 238.052 281.567C238.504 281.464 238.958 281.384 239.414 281.324C240.01 281.247 240.494 281.19 240.865 281.151C241.24 281.109 241.512 281.038 241.683 280.94C241.858 280.842 241.945 280.672 241.945 280.429V280.378C241.945 279.747 241.772 279.257 241.427 278.908C241.086 278.558 240.569 278.384 239.874 278.384C239.154 278.384 238.589 278.541 238.18 278.857C237.771 279.172 237.483 279.509 237.317 279.866L235.885 279.355C236.141 278.759 236.482 278.294 236.908 277.962C237.338 277.625 237.807 277.391 238.314 277.259C238.826 277.122 239.328 277.054 239.823 277.054C240.138 277.054 240.5 277.092 240.909 277.169C241.323 277.241 241.721 277.393 242.105 277.623C242.493 277.853 242.814 278.2 243.07 278.665C243.326 279.129 243.453 279.751 243.453 280.531V287H241.945V285.67H241.868C241.766 285.884 241.596 286.112 241.357 286.354C241.118 286.597 240.801 286.804 240.404 286.974C240.008 287.145 239.525 287.23 238.953 287.23ZM239.184 285.875C239.78 285.875 240.283 285.758 240.692 285.523C241.105 285.289 241.417 284.987 241.625 284.616C241.838 284.245 241.945 283.855 241.945 283.446V282.065C241.881 282.142 241.74 282.212 241.523 282.276C241.31 282.336 241.063 282.389 240.782 282.436C240.505 282.479 240.234 282.517 239.97 282.551C239.71 282.581 239.499 282.607 239.337 282.628C238.945 282.679 238.578 282.762 238.238 282.877C237.901 282.988 237.628 283.156 237.419 283.382C237.215 283.604 237.113 283.906 237.113 284.29C237.113 284.814 237.306 285.21 237.694 285.479C238.086 285.743 238.583 285.875 239.184 285.875ZM247.715 281.094V287H246.207V277.182H247.664V278.716H247.792C248.022 278.217 248.372 277.817 248.84 277.514C249.309 277.207 249.914 277.054 250.656 277.054C251.32 277.054 251.902 277.19 252.401 277.463C252.899 277.732 253.287 278.141 253.564 278.69C253.841 279.236 253.98 279.926 253.98 280.761V287H252.471V280.864C252.471 280.092 252.271 279.491 251.87 279.061C251.47 278.626 250.92 278.409 250.221 278.409C249.74 278.409 249.309 278.513 248.93 278.722C248.555 278.931 248.259 279.236 248.041 279.636C247.824 280.037 247.715 280.523 247.715 281.094ZM260.444 287.205C259.625 287.205 258.903 286.998 258.277 286.585C257.65 286.167 257.16 285.579 256.806 284.82C256.453 284.058 256.276 283.156 256.276 282.116C256.276 281.085 256.453 280.19 256.806 279.432C257.16 278.673 257.652 278.087 258.283 277.674C258.914 277.261 259.642 277.054 260.469 277.054C261.108 277.054 261.613 277.161 261.984 277.374C262.359 277.582 262.645 277.821 262.841 278.089C263.041 278.354 263.196 278.571 263.307 278.741H263.435V273.909H264.944V287H263.486V285.491H263.307C263.196 285.67 263.039 285.896 262.834 286.169C262.63 286.437 262.338 286.678 261.958 286.891C261.579 287.1 261.074 287.205 260.444 287.205ZM260.648 285.849C261.253 285.849 261.765 285.692 262.182 285.376C262.6 285.057 262.917 284.616 263.135 284.053C263.352 283.487 263.461 282.832 263.461 282.091C263.461 281.358 263.354 280.717 263.141 280.167C262.928 279.613 262.613 279.183 262.195 278.876C261.777 278.565 261.262 278.409 260.648 278.409C260.009 278.409 259.476 278.573 259.05 278.901C258.628 279.225 258.311 279.666 258.098 280.224C257.889 280.778 257.784 281.401 257.784 282.091C257.784 282.79 257.891 283.425 258.104 283.996C258.321 284.562 258.641 285.014 259.063 285.351C259.489 285.683 260.017 285.849 260.648 285.849ZM270.805 287.23C270.183 287.23 269.618 287.113 269.111 286.879C268.604 286.64 268.201 286.297 267.903 285.849C267.605 285.398 267.456 284.852 267.456 284.213C267.456 283.651 267.566 283.195 267.788 282.845C268.01 282.491 268.306 282.214 268.676 282.014C269.047 281.814 269.456 281.665 269.904 281.567C270.355 281.464 270.809 281.384 271.265 281.324C271.862 281.247 272.346 281.19 272.716 281.151C273.091 281.109 273.364 281.038 273.534 280.94C273.709 280.842 273.797 280.672 273.797 280.429V280.378C273.797 279.747 273.624 279.257 273.279 278.908C272.938 278.558 272.42 278.384 271.725 278.384C271.005 278.384 270.441 278.541 270.032 278.857C269.623 279.172 269.335 279.509 269.169 279.866L267.737 279.355C267.993 278.759 268.333 278.294 268.76 277.962C269.19 277.625 269.659 277.391 270.166 277.259C270.677 277.122 271.18 277.054 271.674 277.054C271.99 277.054 272.352 277.092 272.761 277.169C273.174 277.241 273.573 277.393 273.956 277.623C274.344 277.853 274.666 278.2 274.922 278.665C275.177 279.129 275.305 279.751 275.305 280.531V287H273.797V285.67H273.72C273.618 285.884 273.447 286.112 273.208 286.354C272.97 286.597 272.652 286.804 272.256 286.974C271.86 287.145 271.376 287.23 270.805 287.23ZM271.035 285.875C271.632 285.875 272.135 285.758 272.544 285.523C272.957 285.289 273.268 284.987 273.477 284.616C273.69 284.245 273.797 283.855 273.797 283.446V282.065C273.733 282.142 273.592 282.212 273.375 282.276C273.162 282.336 272.914 282.389 272.633 282.436C272.356 282.479 272.086 282.517 271.821 282.551C271.561 282.581 271.35 282.607 271.189 282.628C270.797 282.679 270.43 282.762 270.089 282.877C269.752 282.988 269.48 283.156 269.271 283.382C269.066 283.604 268.964 283.906 268.964 284.29C268.964 284.814 269.158 285.21 269.546 285.479C269.938 285.743 270.434 285.875 271.035 285.875ZM287.11 287.205C286.189 287.205 285.396 286.987 284.732 286.553C284.067 286.118 283.556 285.519 283.198 284.756C282.84 283.994 282.661 283.122 282.661 282.142C282.661 281.145 282.844 280.265 283.21 279.502C283.581 278.735 284.097 278.136 284.757 277.706C285.422 277.271 286.198 277.054 287.084 277.054C287.774 277.054 288.396 277.182 288.95 277.438C289.504 277.693 289.958 278.051 290.312 278.511C290.666 278.972 290.885 279.509 290.97 280.122H289.462C289.347 279.675 289.091 279.278 288.695 278.933C288.303 278.584 287.774 278.409 287.11 278.409C286.521 278.409 286.006 278.562 285.563 278.869C285.124 279.172 284.781 279.6 284.534 280.154C284.291 280.704 284.169 281.349 284.169 282.091C284.169 282.849 284.289 283.51 284.527 284.072C284.77 284.635 285.111 285.072 285.55 285.383C285.993 285.694 286.513 285.849 287.11 285.849C287.502 285.849 287.857 285.781 288.177 285.645C288.497 285.509 288.767 285.312 288.989 285.057C289.21 284.801 289.368 284.494 289.462 284.136H290.97C290.885 284.716 290.674 285.238 290.338 285.702C290.005 286.163 289.564 286.529 289.014 286.802C288.469 287.07 287.834 287.205 287.11 287.205ZM296.065 287.23C295.443 287.23 294.878 287.113 294.371 286.879C293.864 286.64 293.461 286.297 293.163 285.849C292.865 285.398 292.715 284.852 292.715 284.213C292.715 283.651 292.826 283.195 293.048 282.845C293.269 282.491 293.566 282.214 293.936 282.014C294.307 281.814 294.716 281.665 295.164 281.567C295.615 281.464 296.069 281.384 296.525 281.324C297.122 281.247 297.605 281.19 297.976 281.151C298.351 281.109 298.624 281.038 298.794 280.94C298.969 280.842 299.056 280.672 299.056 280.429V280.378C299.056 279.747 298.884 279.257 298.539 278.908C298.198 278.558 297.68 278.384 296.985 278.384C296.265 278.384 295.7 278.541 295.291 278.857C294.882 279.172 294.595 279.509 294.428 279.866L292.997 279.355C293.252 278.759 293.593 278.294 294.019 277.962C294.45 277.625 294.919 277.391 295.426 277.259C295.937 277.122 296.44 277.054 296.934 277.054C297.249 277.054 297.612 277.092 298.021 277.169C298.434 277.241 298.833 277.393 299.216 277.623C299.604 277.853 299.926 278.2 300.181 278.665C300.437 279.129 300.565 279.751 300.565 280.531V287H299.056V285.67H298.98C298.877 285.884 298.707 286.112 298.468 286.354C298.23 286.597 297.912 286.804 297.516 286.974C297.119 287.145 296.636 287.23 296.065 287.23ZM296.295 285.875C296.892 285.875 297.394 285.758 297.803 285.523C298.217 285.289 298.528 284.987 298.737 284.616C298.95 284.245 299.056 283.855 299.056 283.446V282.065C298.992 282.142 298.852 282.212 298.634 282.276C298.421 282.336 298.174 282.389 297.893 282.436C297.616 282.479 297.345 282.517 297.081 282.551C296.821 282.581 296.61 282.607 296.448 282.628C296.056 282.679 295.69 282.762 295.349 282.877C295.012 282.988 294.74 283.156 294.531 283.382C294.326 283.604 294.224 283.906 294.224 284.29C294.224 284.814 294.418 285.21 294.806 285.479C295.198 285.743 295.694 285.875 296.295 285.875ZM303.318 287V277.182H304.776V278.665H304.878C305.057 278.179 305.381 277.785 305.849 277.482C306.318 277.18 306.847 277.028 307.435 277.028C307.545 277.028 307.684 277.031 307.85 277.035C308.016 277.039 308.142 277.045 308.227 277.054V278.588C308.176 278.575 308.059 278.556 307.876 278.531C307.697 278.501 307.507 278.486 307.307 278.486C306.83 278.486 306.403 278.586 306.028 278.786C305.658 278.982 305.364 279.255 305.146 279.604C304.933 279.95 304.827 280.344 304.827 280.787V287H303.318ZM310.015 287V277.182H311.524V287H310.015ZM310.782 275.545C310.488 275.545 310.235 275.445 310.022 275.245C309.813 275.045 309.709 274.804 309.709 274.523C309.709 274.241 309.813 274.001 310.022 273.8C310.235 273.6 310.488 273.5 310.782 273.5C311.077 273.5 311.328 273.6 311.537 273.8C311.75 274.001 311.856 274.241 311.856 274.523C311.856 274.804 311.75 275.045 311.537 275.245C311.328 275.445 311.077 275.545 310.782 275.545ZM319.349 287V277.182H320.807V278.716H320.935C321.139 278.192 321.469 277.785 321.925 277.495C322.381 277.201 322.929 277.054 323.568 277.054C324.216 277.054 324.755 277.201 325.185 277.495C325.62 277.785 325.959 278.192 326.202 278.716H326.304C326.555 278.209 326.933 277.806 327.435 277.508C327.938 277.205 328.541 277.054 329.244 277.054C330.122 277.054 330.84 277.329 331.398 277.879C331.957 278.424 332.236 279.274 332.236 280.429V287H330.727V280.429C330.727 279.705 330.529 279.187 330.133 278.876C329.737 278.565 329.27 278.409 328.733 278.409C328.043 278.409 327.508 278.618 327.129 279.036C326.749 279.449 326.56 279.973 326.56 280.608V287H325.026V280.276C325.026 279.717 324.844 279.268 324.482 278.927C324.12 278.582 323.653 278.409 323.082 278.409C322.69 278.409 322.324 278.513 321.983 278.722C321.646 278.931 321.374 279.221 321.165 279.592C320.96 279.958 320.858 280.382 320.858 280.864V287H319.349ZM341.181 282.986V277.182H342.69V287H341.181V285.338H341.079C340.849 285.837 340.491 286.261 340.005 286.61C339.52 286.955 338.906 287.128 338.164 287.128C337.551 287.128 337.005 286.994 336.528 286.725C336.051 286.452 335.676 286.043 335.403 285.498C335.13 284.948 334.994 284.256 334.994 283.42V277.182H336.502V283.318C336.502 284.034 336.703 284.605 337.103 285.031C337.508 285.457 338.024 285.67 338.65 285.67C339.025 285.67 339.407 285.575 339.794 285.383C340.186 285.191 340.515 284.897 340.779 284.501C341.047 284.104 341.181 283.599 341.181 282.986ZM346.961 281.094V287H345.453V277.182H346.91V278.716H347.038C347.268 278.217 347.618 277.817 348.086 277.514C348.555 277.207 349.16 277.054 349.902 277.054C350.567 277.054 351.148 277.19 351.647 277.463C352.145 277.732 352.533 278.141 352.81 278.69C353.087 279.236 353.226 279.926 353.226 280.761V287H351.717V280.864C351.717 280.092 351.517 279.491 351.116 279.061C350.716 278.626 350.166 278.409 349.467 278.409C348.986 278.409 348.555 278.513 348.176 278.722C347.801 278.931 347.505 279.236 347.287 279.636C347.07 280.037 346.961 280.523 346.961 281.094ZM359.945 290.886C359.217 290.886 358.59 290.793 358.066 290.605C357.542 290.422 357.105 290.179 356.756 289.876C356.411 289.578 356.136 289.259 355.931 288.918L357.133 288.074C357.269 288.253 357.442 288.457 357.651 288.688C357.859 288.922 358.145 289.124 358.507 289.295C358.874 289.469 359.353 289.557 359.945 289.557C360.738 289.557 361.392 289.365 361.908 288.982C362.423 288.598 362.681 287.997 362.681 287.179V285.185H362.553C362.442 285.364 362.285 285.585 362.08 285.849C361.88 286.109 361.59 286.342 361.211 286.546C360.836 286.746 360.329 286.847 359.69 286.847C358.897 286.847 358.185 286.659 357.555 286.284C356.928 285.909 356.432 285.364 356.065 284.648C355.703 283.932 355.522 283.062 355.522 282.04C355.522 281.034 355.699 280.158 356.053 279.413C356.406 278.663 356.898 278.083 357.529 277.674C358.16 277.261 358.888 277.054 359.715 277.054C360.354 277.054 360.862 277.161 361.237 277.374C361.616 277.582 361.906 277.821 362.106 278.089C362.31 278.354 362.468 278.571 362.579 278.741H362.732V277.182H364.19V287.281C364.19 288.125 363.998 288.811 363.614 289.339C363.235 289.872 362.724 290.262 362.08 290.509C361.441 290.761 360.729 290.886 359.945 290.886ZM359.894 285.491C360.499 285.491 361.011 285.353 361.428 285.076C361.846 284.799 362.163 284.401 362.381 283.881C362.598 283.361 362.707 282.739 362.707 282.014C362.707 281.307 362.6 280.683 362.387 280.141C362.174 279.6 361.859 279.176 361.441 278.869C361.023 278.562 360.508 278.409 359.894 278.409C359.255 278.409 358.722 278.571 358.296 278.895C357.874 279.219 357.557 279.653 357.344 280.199C357.135 280.744 357.031 281.349 357.031 282.014C357.031 282.696 357.137 283.299 357.35 283.823C357.567 284.343 357.887 284.752 358.309 285.05C358.735 285.344 359.263 285.491 359.894 285.491ZM368.357 283.42L368.332 281.554H368.638L372.934 277.182H374.8L370.224 281.81H370.096L368.357 283.42ZM366.951 287V273.909H368.46V287H366.951ZM373.19 287L369.354 282.142L370.428 281.094L375.107 287H373.19ZM376.742 287V277.182H378.251V287H376.742ZM377.509 275.545C377.215 275.545 376.961 275.445 376.748 275.245C376.54 275.045 376.435 274.804 376.435 274.523C376.435 274.241 376.54 274.001 376.748 273.8C376.961 273.6 377.215 273.5 377.509 273.5C377.803 273.5 378.055 273.6 378.263 273.8C378.476 274.001 378.583 274.241 378.583 274.523C378.583 274.804 378.476 275.045 378.263 275.245C378.055 275.445 377.803 275.545 377.509 275.545ZM382.522 281.094V287H381.013V277.182H382.471V278.716H382.599C382.829 278.217 383.178 277.817 383.647 277.514C384.116 277.207 384.721 277.054 385.462 277.054C386.127 277.054 386.709 277.19 387.207 277.463C387.706 277.732 388.094 278.141 388.371 278.69C388.648 279.236 388.786 279.926 388.786 280.761V287H387.278V280.864C387.278 280.092 387.077 279.491 386.677 279.061C386.276 278.626 385.727 278.409 385.028 278.409C384.546 278.409 384.116 278.513 383.737 278.722C383.362 278.931 383.065 279.236 382.848 279.636C382.631 280.037 382.522 280.523 382.522 281.094ZM400.875 277.182V278.46H395.787V277.182H400.875ZM397.27 274.83H398.779V284.188C398.779 284.614 398.84 284.933 398.964 285.146C399.092 285.355 399.254 285.496 399.45 285.568C399.65 285.636 399.861 285.67 400.083 285.67C400.249 285.67 400.385 285.662 400.492 285.645C400.598 285.624 400.683 285.607 400.747 285.594L401.054 286.949C400.952 286.987 400.809 287.026 400.626 287.064C400.443 287.107 400.21 287.128 399.929 287.128C399.503 287.128 399.085 287.036 398.676 286.853C398.271 286.67 397.935 286.391 397.666 286.016C397.402 285.641 397.27 285.168 397.27 284.597V274.83ZM403.144 287V277.182H404.653V287H403.144ZM403.911 275.545C403.617 275.545 403.364 275.445 403.151 275.245C402.942 275.045 402.838 274.804 402.838 274.523C402.838 274.241 402.942 274.001 403.151 273.8C403.364 273.6 403.617 273.5 403.911 273.5C404.205 273.5 404.457 273.6 404.666 273.8C404.879 274.001 404.985 274.241 404.985 274.523C404.985 274.804 404.879 275.045 404.666 275.245C404.457 275.445 404.205 275.545 403.911 275.545ZM411.123 287.205C410.305 287.205 409.583 286.998 408.956 286.585C408.33 286.167 407.84 285.579 407.486 284.82C407.132 284.058 406.956 283.156 406.956 282.116C406.956 281.085 407.132 280.19 407.486 279.432C407.84 278.673 408.332 278.087 408.963 277.674C409.593 277.261 410.322 277.054 411.149 277.054C411.788 277.054 412.293 277.161 412.664 277.374C413.039 277.582 413.324 277.821 413.52 278.089C413.721 278.354 413.876 278.571 413.987 278.741H414.115V273.909H415.623V287H414.166V285.491H413.987C413.876 285.67 413.718 285.896 413.514 286.169C413.309 286.437 413.017 286.678 412.638 286.891C412.259 287.1 411.754 287.205 411.123 287.205ZM411.328 285.849C411.933 285.849 412.444 285.692 412.862 285.376C413.279 285.057 413.597 284.616 413.814 284.053C414.032 283.487 414.14 282.832 414.14 282.091C414.14 281.358 414.034 280.717 413.821 280.167C413.608 279.613 413.292 279.183 412.875 278.876C412.457 278.565 411.941 278.409 411.328 278.409C410.689 278.409 410.156 278.573 409.73 278.901C409.308 279.225 408.99 279.666 408.777 280.224C408.569 280.778 408.464 281.401 408.464 282.091C408.464 282.79 408.571 283.425 408.784 283.996C409.001 284.562 409.321 285.014 409.743 285.351C410.169 285.683 410.697 285.849 411.328 285.849ZM421.485 287.23C420.863 287.23 420.298 287.113 419.791 286.879C419.284 286.64 418.881 286.297 418.583 285.849C418.284 285.398 418.135 284.852 418.135 284.213C418.135 283.651 418.246 283.195 418.468 282.845C418.689 282.491 418.985 282.214 419.356 282.014C419.727 281.814 420.136 281.665 420.583 281.567C421.035 281.464 421.489 281.384 421.945 281.324C422.542 281.247 423.025 281.19 423.396 281.151C423.771 281.109 424.044 281.038 424.214 280.94C424.389 280.842 424.476 280.672 424.476 280.429V280.378C424.476 279.747 424.304 279.257 423.958 278.908C423.618 278.558 423.1 278.384 422.405 278.384C421.685 278.384 421.12 278.541 420.711 278.857C420.302 279.172 420.015 279.509 419.848 279.866L418.417 279.355C418.672 278.759 419.013 278.294 419.439 277.962C419.87 277.625 420.338 277.391 420.846 277.259C421.357 277.122 421.86 277.054 422.354 277.054C422.669 277.054 423.032 277.092 423.441 277.169C423.854 277.241 424.252 277.393 424.636 277.623C425.024 277.853 425.346 278.2 425.601 278.665C425.857 279.129 425.985 279.751 425.985 280.531V287H424.476V285.67H424.4C424.297 285.884 424.127 286.112 423.888 286.354C423.65 286.597 423.332 286.804 422.936 286.974C422.539 287.145 422.056 287.23 421.485 287.23ZM421.715 285.875C422.311 285.875 422.814 285.758 423.223 285.523C423.637 285.289 423.948 284.987 424.157 284.616C424.37 284.245 424.476 283.855 424.476 283.446V282.065C424.412 282.142 424.272 282.212 424.054 282.276C423.841 282.336 423.594 282.389 423.313 282.436C423.036 282.479 422.765 282.517 422.501 282.551C422.241 282.581 422.03 282.607 421.868 282.628C421.476 282.679 421.11 282.762 420.769 282.877C420.432 282.988 420.159 283.156 419.951 283.382C419.746 283.604 419.644 283.906 419.644 284.29C419.644 284.814 419.838 285.21 420.225 285.479C420.618 285.743 421.114 285.875 421.715 285.875ZM430.144 283.42L430.119 281.554H430.426L434.721 277.182H436.588L432.011 281.81H431.883L430.144 283.42ZM428.738 287V273.909H430.247V287H428.738ZM434.977 287L431.142 282.142L432.215 281.094L436.894 287H434.977ZM446.481 287.23C445.859 287.23 445.294 287.113 444.787 286.879C444.28 286.64 443.877 286.297 443.579 285.849C443.281 285.398 443.131 284.852 443.131 284.213C443.131 283.651 443.242 283.195 443.464 282.845C443.685 282.491 443.982 282.214 444.352 282.014C444.723 281.814 445.132 281.665 445.58 281.567C446.031 281.464 446.485 281.384 446.941 281.324C447.538 281.247 448.021 281.19 448.392 281.151C448.767 281.109 449.04 281.038 449.21 280.94C449.385 280.842 449.472 280.672 449.472 280.429V280.378C449.472 279.747 449.3 279.257 448.955 278.908C448.614 278.558 448.096 278.384 447.401 278.384C446.681 278.384 446.116 278.541 445.707 278.857C445.298 279.172 445.011 279.509 444.844 279.866L443.413 279.355C443.668 278.759 444.009 278.294 444.435 277.962C444.866 277.625 445.335 277.391 445.842 277.259C446.353 277.122 446.856 277.054 447.35 277.054C447.665 277.054 448.028 277.092 448.437 277.169C448.85 277.241 449.249 277.393 449.632 277.623C450.02 277.853 450.342 278.2 450.597 278.665C450.853 279.129 450.981 279.751 450.981 280.531V287H449.472V285.67H449.396C449.293 285.884 449.123 286.112 448.884 286.354C448.646 286.597 448.328 286.804 447.932 286.974C447.536 287.145 447.052 287.23 446.481 287.23ZM446.711 285.875C447.308 285.875 447.81 285.758 448.219 285.523C448.633 285.289 448.944 284.987 449.153 284.616C449.366 284.245 449.472 283.855 449.472 283.446V282.065C449.408 282.142 449.268 282.212 449.05 282.276C448.837 282.336 448.59 282.389 448.309 282.436C448.032 282.479 447.761 282.517 447.497 282.551C447.237 282.581 447.026 282.607 446.864 282.628C446.472 282.679 446.106 282.762 445.765 282.877C445.428 282.988 445.156 283.156 444.947 283.382C444.742 283.604 444.64 283.906 444.64 284.29C444.64 284.814 444.834 285.21 445.222 285.479C445.614 285.743 446.11 285.875 446.711 285.875ZM457.442 287.205C456.623 287.205 455.901 286.998 455.275 286.585C454.648 286.167 454.158 285.579 453.805 284.82C453.451 284.058 453.274 283.156 453.274 282.116C453.274 281.085 453.451 280.19 453.805 279.432C454.158 278.673 454.65 278.087 455.281 277.674C455.912 277.261 456.64 277.054 457.467 277.054C458.106 277.054 458.611 277.161 458.982 277.374C459.357 277.582 459.643 277.821 459.839 278.089C460.039 278.354 460.194 278.571 460.305 278.741H460.433V273.909H461.942V287H460.484V285.491H460.305C460.194 285.67 460.037 285.896 459.832 286.169C459.628 286.437 459.336 286.678 458.956 286.891C458.577 287.1 458.072 287.205 457.442 287.205ZM457.646 285.849C458.251 285.849 458.763 285.692 459.18 285.376C459.598 285.057 459.915 284.616 460.133 284.053C460.35 283.487 460.459 282.832 460.459 282.091C460.459 281.358 460.352 280.717 460.139 280.167C459.926 279.613 459.611 279.183 459.193 278.876C458.775 278.565 458.26 278.409 457.646 278.409C457.007 278.409 456.474 278.573 456.048 278.901C455.626 279.225 455.309 279.666 455.096 280.224C454.887 280.778 454.782 281.401 454.782 282.091C454.782 282.79 454.889 283.425 455.102 283.996C455.319 284.562 455.639 285.014 456.061 285.351C456.487 285.683 457.015 285.849 457.646 285.849ZM467.803 287.23C467.181 287.23 466.616 287.113 466.109 286.879C465.602 286.64 465.199 286.297 464.901 285.849C464.603 285.398 464.454 284.852 464.454 284.213C464.454 283.651 464.564 283.195 464.786 282.845C465.008 282.491 465.304 282.214 465.675 282.014C466.045 281.814 466.454 281.665 466.902 281.567C467.354 281.464 467.807 281.384 468.263 281.324C468.86 281.247 469.344 281.19 469.714 281.151C470.089 281.109 470.362 281.038 470.532 280.94C470.707 280.842 470.795 280.672 470.795 280.429V280.378C470.795 279.747 470.622 279.257 470.277 278.908C469.936 278.558 469.418 278.384 468.724 278.384C468.003 278.384 467.439 278.541 467.03 278.857C466.621 279.172 466.333 279.509 466.167 279.866L464.735 279.355C464.991 278.759 465.331 278.294 465.758 277.962C466.188 277.625 466.657 277.391 467.164 277.259C467.675 277.122 468.178 277.054 468.672 277.054C468.988 277.054 469.35 277.092 469.759 277.169C470.172 277.241 470.571 277.393 470.954 277.623C471.342 277.853 471.664 278.2 471.92 278.665C472.175 279.129 472.303 279.751 472.303 280.531V287H470.795V285.67H470.718C470.616 285.884 470.445 286.112 470.206 286.354C469.968 286.597 469.65 286.804 469.254 286.974C468.858 287.145 468.374 287.23 467.803 287.23ZM468.033 285.875C468.63 285.875 469.133 285.758 469.542 285.523C469.955 285.289 470.266 284.987 470.475 284.616C470.688 284.245 470.795 283.855 470.795 283.446V282.065C470.731 282.142 470.59 282.212 470.373 282.276C470.16 282.336 469.912 282.389 469.631 282.436C469.354 282.479 469.084 282.517 468.819 282.551C468.559 282.581 468.349 282.607 468.187 282.628C467.795 282.679 467.428 282.762 467.087 282.877C466.751 282.988 466.478 283.156 466.269 283.382C466.064 283.604 465.962 283.906 465.962 284.29C465.962 284.814 466.156 285.21 466.544 285.479C466.936 285.743 467.432 285.875 468.033 285.875Z" fill="white"/>
<rect x="190" y="328" width="214" height="50" rx="7" fill="white"/>
<path d="M221.148 359V347.364H223.256V352.71H223.398L227.938 347.364H230.511L226.011 352.585L230.551 359H228.017L224.545 354.011L223.256 355.534V359H221.148ZM235.108 359.17C234.233 359.17 233.477 358.989 232.841 358.625C232.208 358.258 231.722 357.739 231.381 357.068C231.04 356.394 230.869 355.6 230.869 354.688C230.869 353.79 231.04 353.002 231.381 352.324C231.725 351.642 232.206 351.112 232.824 350.733C233.441 350.35 234.167 350.159 235 350.159C235.538 350.159 236.045 350.246 236.523 350.42C237.004 350.591 237.428 350.856 237.795 351.216C238.167 351.576 238.458 352.034 238.67 352.591C238.883 353.144 238.989 353.803 238.989 354.568V355.199H231.835V353.812H237.017C237.013 353.419 236.928 353.068 236.761 352.761C236.595 352.451 236.362 352.206 236.062 352.028C235.767 351.85 235.422 351.761 235.028 351.761C234.608 351.761 234.239 351.864 233.92 352.068C233.602 352.269 233.354 352.534 233.176 352.864C233.002 353.189 232.913 353.547 232.909 353.938V355.148C232.909 355.655 233.002 356.091 233.188 356.455C233.373 356.814 233.633 357.091 233.966 357.284C234.299 357.473 234.689 357.568 235.136 357.568C235.436 357.568 235.706 357.527 235.949 357.443C236.191 357.356 236.402 357.229 236.58 357.062C236.758 356.896 236.892 356.689 236.983 356.443L238.903 356.659C238.782 357.167 238.551 357.61 238.21 357.989C237.873 358.364 237.441 358.655 236.915 358.864C236.388 359.068 235.786 359.17 235.108 359.17ZM240.729 359V350.273H242.695V351.756H242.797C242.979 351.256 243.28 350.866 243.7 350.585C244.121 350.301 244.623 350.159 245.206 350.159C245.797 350.159 246.295 350.303 246.7 350.591C247.109 350.875 247.397 351.263 247.564 351.756H247.655C247.848 351.271 248.174 350.884 248.632 350.597C249.094 350.305 249.642 350.159 250.274 350.159C251.077 350.159 251.732 350.413 252.24 350.92C252.748 351.428 253.001 352.169 253.001 353.142V359H250.939V353.46C250.939 352.919 250.795 352.523 250.507 352.273C250.219 352.019 249.867 351.892 249.45 351.892C248.954 351.892 248.566 352.047 248.286 352.358C248.009 352.665 247.871 353.064 247.871 353.557V359H245.854V353.375C245.854 352.924 245.717 352.564 245.445 352.295C245.176 352.027 244.823 351.892 244.388 351.892C244.092 351.892 243.823 351.968 243.581 352.119C243.339 352.267 243.145 352.477 243.001 352.75C242.857 353.019 242.786 353.333 242.786 353.693V359H240.729ZM255.179 359V347.364H257.236V351.716H257.321C257.427 351.504 257.577 351.278 257.77 351.04C257.963 350.797 258.224 350.591 258.554 350.42C258.884 350.246 259.304 350.159 259.815 350.159C260.49 350.159 261.098 350.331 261.639 350.676C262.185 351.017 262.616 351.523 262.935 352.193C263.257 352.86 263.418 353.678 263.418 354.648C263.418 355.606 263.26 356.42 262.946 357.091C262.632 357.761 262.204 358.273 261.662 358.625C261.12 358.977 260.507 359.153 259.821 359.153C259.321 359.153 258.906 359.07 258.577 358.903C258.247 358.737 257.982 358.536 257.781 358.301C257.584 358.062 257.431 357.837 257.321 357.625H257.202V359H255.179ZM257.196 354.636C257.196 355.201 257.276 355.695 257.435 356.119C257.598 356.544 257.83 356.875 258.134 357.114C258.44 357.348 258.812 357.466 259.247 357.466C259.702 357.466 260.082 357.345 260.389 357.102C260.696 356.856 260.927 356.521 261.082 356.097C261.241 355.669 261.321 355.182 261.321 354.636C261.321 354.095 261.243 353.614 261.088 353.193C260.933 352.773 260.702 352.443 260.395 352.205C260.088 351.966 259.705 351.847 259.247 351.847C258.808 351.847 258.435 351.962 258.128 352.193C257.821 352.424 257.588 352.748 257.429 353.165C257.274 353.581 257.196 354.072 257.196 354.636ZM267.678 359.176C267.125 359.176 266.626 359.078 266.183 358.881C265.744 358.68 265.395 358.384 265.138 357.994C264.884 357.604 264.757 357.123 264.757 356.551C264.757 356.059 264.848 355.652 265.03 355.33C265.212 355.008 265.46 354.75 265.774 354.557C266.089 354.364 266.443 354.218 266.837 354.119C267.234 354.017 267.645 353.943 268.07 353.898C268.581 353.845 268.996 353.797 269.314 353.756C269.632 353.71 269.863 353.642 270.007 353.551C270.155 353.456 270.229 353.311 270.229 353.114V353.08C270.229 352.652 270.102 352.32 269.848 352.085C269.594 351.85 269.229 351.733 268.751 351.733C268.248 351.733 267.848 351.843 267.553 352.062C267.261 352.282 267.064 352.542 266.962 352.841L265.041 352.568C265.193 352.038 265.443 351.595 265.791 351.239C266.14 350.879 266.566 350.61 267.07 350.432C267.573 350.25 268.13 350.159 268.74 350.159C269.161 350.159 269.579 350.208 269.996 350.307C270.412 350.405 270.793 350.568 271.138 350.795C271.482 351.019 271.759 351.324 271.967 351.71C272.179 352.097 272.286 352.58 272.286 353.159V359H270.308V357.801H270.24C270.115 358.044 269.939 358.271 269.712 358.483C269.488 358.691 269.206 358.86 268.865 358.989C268.528 359.114 268.132 359.176 267.678 359.176ZM268.212 357.665C268.625 357.665 268.982 357.583 269.286 357.42C269.589 357.254 269.821 357.034 269.984 356.761C270.151 356.489 270.234 356.191 270.234 355.869V354.841C270.17 354.894 270.06 354.943 269.905 354.989C269.753 355.034 269.583 355.074 269.393 355.108C269.204 355.142 269.017 355.172 268.831 355.199C268.645 355.225 268.484 355.248 268.348 355.267C268.041 355.309 267.767 355.377 267.524 355.472C267.282 355.566 267.09 355.699 266.95 355.869C266.81 356.036 266.74 356.252 266.74 356.517C266.74 356.896 266.878 357.182 267.155 357.375C267.431 357.568 267.784 357.665 268.212 357.665ZM276.411 347.364V359H274.354V347.364H276.411ZM278.526 359V350.273H280.582V359H278.526ZM279.56 349.034C279.234 349.034 278.954 348.926 278.719 348.71C278.484 348.491 278.366 348.227 278.366 347.92C278.366 347.61 278.484 347.347 278.719 347.131C278.954 346.911 279.234 346.801 279.56 346.801C279.889 346.801 280.17 346.911 280.401 347.131C280.635 347.347 280.753 347.61 280.753 347.92C280.753 348.227 280.635 348.491 280.401 348.71C280.17 348.926 279.889 349.034 279.56 349.034ZM288.541 356.261L288.536 353.778H288.865L292.001 350.273H294.405L290.547 354.568H290.121L288.541 356.261ZM286.666 359V347.364H288.723V359H286.666ZM292.143 359L289.303 355.028L290.689 353.58L294.604 359H292.143ZM299.28 359.17C298.405 359.17 297.649 358.989 297.013 358.625C296.38 358.258 295.893 357.739 295.553 357.068C295.212 356.394 295.041 355.6 295.041 354.688C295.041 353.79 295.212 353.002 295.553 352.324C295.897 351.642 296.378 351.112 296.996 350.733C297.613 350.35 298.339 350.159 299.172 350.159C299.71 350.159 300.217 350.246 300.695 350.42C301.176 350.591 301.6 350.856 301.967 351.216C302.339 351.576 302.63 352.034 302.842 352.591C303.054 353.144 303.161 353.803 303.161 354.568V355.199H296.007V353.812H301.189C301.185 353.419 301.1 353.068 300.933 352.761C300.767 352.451 300.534 352.206 300.234 352.028C299.939 351.85 299.594 351.761 299.2 351.761C298.78 351.761 298.411 351.864 298.092 352.068C297.774 352.269 297.526 352.534 297.348 352.864C297.174 353.189 297.085 353.547 297.081 353.938V355.148C297.081 355.655 297.174 356.091 297.359 356.455C297.545 356.814 297.804 357.091 298.138 357.284C298.471 357.473 298.861 357.568 299.308 357.568C299.607 357.568 299.878 357.527 300.121 357.443C300.363 357.356 300.573 357.229 300.751 357.062C300.929 356.896 301.064 356.689 301.155 356.443L303.075 356.659C302.954 357.167 302.723 357.61 302.382 357.989C302.045 358.364 301.613 358.655 301.087 358.864C300.56 359.068 299.958 359.17 299.28 359.17ZM308.96 359V347.364H313.415C314.256 347.364 314.955 347.496 315.511 347.761C316.072 348.023 316.491 348.381 316.767 348.835C317.047 349.29 317.188 349.805 317.188 350.381C317.188 350.854 317.097 351.259 316.915 351.597C316.733 351.93 316.489 352.201 316.182 352.409C315.875 352.617 315.532 352.767 315.153 352.858V352.972C315.566 352.994 315.962 353.121 316.341 353.352C316.723 353.58 317.036 353.902 317.278 354.318C317.521 354.735 317.642 355.239 317.642 355.83C317.642 356.432 317.496 356.973 317.205 357.455C316.913 357.932 316.473 358.309 315.886 358.585C315.299 358.862 314.561 359 313.67 359H308.96ZM311.068 357.239H313.335C314.1 357.239 314.652 357.093 314.989 356.801C315.33 356.506 315.5 356.127 315.5 355.665C315.5 355.32 315.415 355.009 315.244 354.733C315.074 354.453 314.831 354.233 314.517 354.074C314.203 353.911 313.828 353.83 313.392 353.83H311.068V357.239ZM311.068 352.312H313.153C313.517 352.312 313.845 352.246 314.136 352.114C314.428 351.977 314.657 351.786 314.824 351.54C314.994 351.29 315.08 350.994 315.08 350.653C315.08 350.203 314.92 349.831 314.602 349.54C314.288 349.248 313.82 349.102 313.199 349.102H311.068V352.312ZM323.249 359.17C322.374 359.17 321.618 358.989 320.982 358.625C320.349 358.258 319.862 357.739 319.521 357.068C319.18 356.394 319.01 355.6 319.01 354.688C319.01 353.79 319.18 353.002 319.521 352.324C319.866 351.642 320.347 351.112 320.964 350.733C321.582 350.35 322.307 350.159 323.141 350.159C323.679 350.159 324.186 350.246 324.663 350.42C325.144 350.591 325.569 350.856 325.936 351.216C326.307 351.576 326.599 352.034 326.811 352.591C327.023 353.144 327.129 353.803 327.129 354.568V355.199H319.976V353.812H325.158C325.154 353.419 325.069 353.068 324.902 352.761C324.735 352.451 324.502 352.206 324.203 352.028C323.908 351.85 323.563 351.761 323.169 351.761C322.749 351.761 322.379 351.864 322.061 352.068C321.743 352.269 321.495 352.534 321.317 352.864C321.143 353.189 321.054 353.547 321.05 353.938V355.148C321.05 355.655 321.143 356.091 321.328 356.455C321.514 356.814 321.773 357.091 322.107 357.284C322.44 357.473 322.83 357.568 323.277 357.568C323.576 357.568 323.847 357.527 324.089 357.443C324.332 357.356 324.542 357.229 324.72 357.062C324.898 356.896 325.033 356.689 325.124 356.443L327.044 356.659C326.923 357.167 326.692 357.61 326.351 357.989C326.014 358.364 325.582 358.655 325.055 358.864C324.529 359.068 323.927 359.17 323.249 359.17ZM328.869 359V350.273H330.864V351.727H330.955C331.114 351.223 331.386 350.835 331.773 350.562C332.163 350.286 332.608 350.148 333.108 350.148C333.222 350.148 333.348 350.153 333.489 350.165C333.633 350.172 333.752 350.186 333.847 350.205V352.097C333.759 352.066 333.621 352.04 333.432 352.017C333.246 351.991 333.066 351.977 332.892 351.977C332.517 351.977 332.18 352.059 331.881 352.222C331.585 352.381 331.352 352.602 331.182 352.886C331.011 353.17 330.926 353.498 330.926 353.869V359H328.869ZM337.568 359.176C337.015 359.176 336.517 359.078 336.074 358.881C335.634 358.68 335.286 358.384 335.028 357.994C334.775 357.604 334.648 357.123 334.648 356.551C334.648 356.059 334.739 355.652 334.92 355.33C335.102 355.008 335.35 354.75 335.665 354.557C335.979 354.364 336.333 354.218 336.727 354.119C337.125 354.017 337.536 353.943 337.96 353.898C338.472 353.845 338.886 353.797 339.205 353.756C339.523 353.71 339.754 353.642 339.898 353.551C340.045 353.456 340.119 353.311 340.119 353.114V353.08C340.119 352.652 339.992 352.32 339.739 352.085C339.485 351.85 339.119 351.733 338.642 351.733C338.138 351.733 337.739 351.843 337.443 352.062C337.152 352.282 336.955 352.542 336.852 352.841L334.932 352.568C335.083 352.038 335.333 351.595 335.682 351.239C336.03 350.879 336.456 350.61 336.96 350.432C337.464 350.25 338.021 350.159 338.631 350.159C339.051 350.159 339.47 350.208 339.886 350.307C340.303 350.405 340.684 350.568 341.028 350.795C341.373 351.019 341.65 351.324 341.858 351.71C342.07 352.097 342.176 352.58 342.176 353.159V359H340.199V357.801H340.131C340.006 358.044 339.83 358.271 339.602 358.483C339.379 358.691 339.097 358.86 338.756 358.989C338.419 359.114 338.023 359.176 337.568 359.176ZM338.102 357.665C338.515 357.665 338.873 357.583 339.176 357.42C339.479 357.254 339.712 357.034 339.875 356.761C340.042 356.489 340.125 356.191 340.125 355.869V354.841C340.061 354.894 339.951 354.943 339.795 354.989C339.644 355.034 339.473 355.074 339.284 355.108C339.095 355.142 338.907 355.172 338.722 355.199C338.536 355.225 338.375 355.248 338.239 355.267C337.932 355.309 337.657 355.377 337.415 355.472C337.172 355.566 336.981 355.699 336.841 355.869C336.701 356.036 336.631 356.252 336.631 356.517C336.631 356.896 336.769 357.182 337.045 357.375C337.322 357.568 337.674 357.665 338.102 357.665ZM346.301 353.886V359H344.244V350.273H346.21V351.756H346.312C346.513 351.267 346.833 350.879 347.273 350.591C347.716 350.303 348.263 350.159 348.915 350.159C349.517 350.159 350.042 350.288 350.489 350.545C350.939 350.803 351.288 351.176 351.534 351.665C351.784 352.153 351.907 352.746 351.903 353.443V359H349.847V353.761C349.847 353.178 349.695 352.722 349.392 352.392C349.093 352.062 348.678 351.898 348.148 351.898C347.788 351.898 347.468 351.977 347.188 352.136C346.911 352.292 346.693 352.517 346.534 352.812C346.379 353.108 346.301 353.466 346.301 353.886ZM357.233 359.153C356.547 359.153 355.934 358.977 355.392 358.625C354.85 358.273 354.422 357.761 354.108 357.091C353.794 356.42 353.636 355.606 353.636 354.648C353.636 353.678 353.795 352.86 354.114 352.193C354.436 351.523 354.869 351.017 355.415 350.676C355.96 350.331 356.568 350.159 357.239 350.159C357.75 350.159 358.17 350.246 358.5 350.42C358.83 350.591 359.091 350.797 359.284 351.04C359.477 351.278 359.627 351.504 359.733 351.716H359.818V347.364H361.881V359H359.858V357.625H359.733C359.627 357.837 359.473 358.062 359.273 358.301C359.072 358.536 358.807 358.737 358.477 358.903C358.148 359.07 357.733 359.153 357.233 359.153ZM357.807 357.466C358.242 357.466 358.614 357.348 358.92 357.114C359.227 356.875 359.46 356.544 359.619 356.119C359.778 355.695 359.858 355.201 359.858 354.636C359.858 354.072 359.778 353.581 359.619 353.165C359.464 352.748 359.233 352.424 358.926 352.193C358.623 351.962 358.25 351.847 357.807 351.847C357.348 351.847 356.966 351.966 356.659 352.205C356.352 352.443 356.121 352.773 355.966 353.193C355.811 353.614 355.733 354.095 355.733 354.636C355.733 355.182 355.811 355.669 355.966 356.097C356.125 356.521 356.358 356.856 356.665 357.102C356.975 357.345 357.356 357.466 357.807 357.466ZM366.584 359.176C366.031 359.176 365.533 359.078 365.089 358.881C364.65 358.68 364.302 358.384 364.044 357.994C363.79 357.604 363.663 357.123 363.663 356.551C363.663 356.059 363.754 355.652 363.936 355.33C364.118 355.008 364.366 354.75 364.68 354.557C364.995 354.364 365.349 354.218 365.743 354.119C366.141 354.017 366.552 353.943 366.976 353.898C367.487 353.845 367.902 353.797 368.22 353.756C368.538 353.71 368.769 353.642 368.913 353.551C369.061 353.456 369.135 353.311 369.135 353.114V353.08C369.135 352.652 369.008 352.32 368.754 352.085C368.5 351.85 368.135 351.733 367.658 351.733C367.154 351.733 366.754 351.843 366.459 352.062C366.167 352.282 365.97 352.542 365.868 352.841L363.947 352.568C364.099 352.038 364.349 351.595 364.697 351.239C365.046 350.879 365.472 350.61 365.976 350.432C366.48 350.25 367.036 350.159 367.646 350.159C368.067 350.159 368.485 350.208 368.902 350.307C369.319 350.405 369.699 350.568 370.044 350.795C370.389 351.019 370.665 351.324 370.874 351.71C371.086 352.097 371.192 352.58 371.192 353.159V359H369.214V357.801H369.146C369.021 358.044 368.845 358.271 368.618 358.483C368.394 358.691 368.112 358.86 367.771 358.989C367.434 359.114 367.038 359.176 366.584 359.176ZM367.118 357.665C367.531 357.665 367.889 357.583 368.192 357.42C368.495 357.254 368.728 357.034 368.891 356.761C369.057 356.489 369.141 356.191 369.141 355.869V354.841C369.076 354.894 368.966 354.943 368.811 354.989C368.66 355.034 368.489 355.074 368.3 355.108C368.11 355.142 367.923 355.172 367.737 355.199C367.552 355.225 367.391 355.248 367.254 355.267C366.947 355.309 366.673 355.377 366.43 355.472C366.188 355.566 365.997 355.699 365.857 355.869C365.716 356.036 365.646 356.252 365.646 356.517C365.646 356.896 365.785 357.182 366.061 357.375C366.338 357.568 366.69 357.665 367.118 357.665Z" fill="#3056D3"/>
</svg>
