<svg width="17" height="20" viewBox="0 0 17 20" fill="none" xmlns="http://www.w3.org/2000/svg">
<path fill-rule="evenodd" clip-rule="evenodd" d="M12.8818 15.0526C15.0619 13.6491 16.5021 11.2261 16.5021 8.47224C16.5021 4.13169 12.924 0.612976 8.51031 0.612976C4.09659 0.612976 0.518555 4.13169 0.518555 8.47224C0.518555 11.1602 1.89075 13.5331 3.98385 14.9502L8.61285 19.4704L12.8818 15.0526Z" fill="#46DDDD"/>
<path d="M14.5037 8.4723C14.5037 11.7277 11.8202 14.3667 8.50993 14.3667C5.19964 14.3667 2.51611 11.7277 2.51611 8.4723C2.51611 5.21688 5.19964 2.57785 8.50993 2.57785C11.8202 2.57785 14.5037 5.21688 14.5037 8.4723Z" fill="white"/>
<path d="M4.51416 6.12768C5.84612 4.6007 7.4635 4.7395 8.98574 6.12768C10.3177 7.09938 11.3642 7.2382 12.5059 6.12768" stroke="#46DDDD" stroke-linecap="round"/>
<path d="M4.51416 8.62836C5.84612 7.10137 7.4635 7.24017 8.98574 8.62836C10.3177 9.60005 11.3642 9.73887 12.5059 8.62836" stroke="#46DDDD" stroke-linecap="round"/>
<path d="M4.51416 11.129C5.84612 9.60204 7.4635 9.74084 8.98574 11.129C10.3177 12.1007 11.3642 12.2395 12.5059 11.129" stroke="#46DDDD" stroke-linecap="round"/>
</svg>
