<svg width="56" height="24" viewBox="0 0 56 24" fill="none" xmlns="http://www.w3.org/2000/svg">
<rect width="56" height="24" rx="12" fill="#219653" fill-opacity="0.08"/>
<path d="M20 12C20 13.6569 18.6569 15 17 15C15.3431 15 14 13.6569 14 12C14 10.3431 15.3431 9 17 9C18.6569 9 20 10.3431 20 12Z" fill="#219653"/>
<path d="M34.5398 11.6364C34.5398 12.5682 34.3693 13.3693 34.0284 14.0398C33.6875 14.7074 33.2202 15.2216 32.6264 15.5824C32.0355 15.9403 31.3636 16.1193 30.6108 16.1193C29.8551 16.1193 29.1804 15.9403 28.5866 15.5824C27.9957 15.2216 27.5298 14.706 27.1889 14.0355C26.848 13.3651 26.6776 12.5653 26.6776 11.6364C26.6776 10.7045 26.848 9.90483 27.1889 9.23722C27.5298 8.56676 27.9957 8.05256 28.5866 7.6946C29.1804 7.33381 29.8551 7.15341 30.6108 7.15341C31.3636 7.15341 32.0355 7.33381 32.6264 7.6946C33.2202 8.05256 33.6875 8.56676 34.0284 9.23722C34.3693 9.90483 34.5398 10.7045 34.5398 11.6364ZM33.2358 11.6364C33.2358 10.9261 33.1207 10.3281 32.8906 9.84233C32.6634 9.35369 32.3509 8.98438 31.9531 8.73438C31.5582 8.48153 31.1108 8.35511 30.6108 8.35511C30.108 8.35511 29.6591 8.48153 29.2642 8.73438C28.8693 8.98438 28.5568 9.35369 28.3267 9.84233C28.0994 10.3281 27.9858 10.9261 27.9858 11.6364C27.9858 12.3466 28.0994 12.946 28.3267 13.4347C28.5568 13.9205 28.8693 14.2898 29.2642 14.5426C29.6591 14.7926 30.108 14.9176 30.6108 14.9176C31.1108 14.9176 31.5582 14.7926 31.9531 14.5426C32.3509 14.2898 32.6634 13.9205 32.8906 13.4347C33.1207 12.946 33.2358 12.3466 33.2358 11.6364ZM37.2511 13.7798L37.2425 12.2244H37.4641L40.0721 9.45455H41.5977L38.6232 12.608H38.4229L37.2511 13.7798ZM36.0792 16V7.27273H37.3533V16H36.0792ZM40.2127 16L37.869 12.8892L38.7468 11.9986L41.7766 16H40.2127Z" fill="#219653"/>
</svg>
