<svg width="20" height="20" viewBox="0 0 20 20" fill="none" xmlns="http://www.w3.org/2000/svg">
<g opacity="0.8">
<path fill-rule="evenodd" clip-rule="evenodd" d="M4.16675 10C3.70651 10 3.33341 10.3731 3.33341 10.8333V16.6667C3.33341 17.1269 3.70651 17.5 4.16675 17.5H15.8334C16.2936 17.5 16.6667 17.1269 16.6667 16.6667V10.8333C16.6667 10.3731 16.2936 10 15.8334 10H4.16675ZM1.66675 10.8333C1.66675 9.45263 2.78604 8.33334 4.16675 8.33334H15.8334C17.2141 8.33334 18.3334 9.45263 18.3334 10.8333V16.6667C18.3334 18.0474 17.2141 19.1667 15.8334 19.1667H4.16675C2.78604 19.1667 1.66675 18.0474 1.66675 16.6667V10.8333Z" fill="#637381"/>
<path fill-rule="evenodd" clip-rule="evenodd" d="M10 2.50001C9.11594 2.50001 8.2681 2.8512 7.64298 3.47632C7.01786 4.10144 6.66667 4.94929 6.66667 5.83334V9.16668C6.66667 9.62692 6.29357 10 5.83333 10C5.3731 10 5 9.62692 5 9.16668V5.83334C5 4.50726 5.52678 3.23549 6.46447 2.29781C7.40215 1.36013 8.67392 0.833344 10 0.833344C11.3261 0.833344 12.5979 1.36013 13.5355 2.29781C14.4732 3.23549 15 4.50726 15 5.83334V9.16668C15 9.62692 14.6269 10 14.1667 10C13.7064 10 13.3333 9.62692 13.3333 9.16668V5.83334C13.3333 4.94929 12.9821 4.10144 12.357 3.47632C11.7319 2.8512 10.8841 2.50001 10 2.50001Z" fill="#637381"/>
</g>
</svg>
