<svg width="12" height="12" viewBox="0 0 12 12" fill="none" xmlns="http://www.w3.org/2000/svg">
<path fill-rule="evenodd" clip-rule="evenodd" d="M6.76304 2.23593C6.67343 2.09186 6.51688 2.00306 6.34724 2.00008C6.1776 1.9971 6.01803 2.08035 5.92342 2.22118L4.99088 3.60934L4.47757 2.74475C4.38889 2.59537 4.22903 2.50274 4.05533 2.50006C3.88164 2.49738 3.719 2.58505 3.62576 2.73162L2.07557 5.1684C2.01023 5.27112 1.9846 5.39414 2.0035 5.5144C2.14334 6.40428 2.51264 6.94082 2.98131 7.23008C2.99935 7.24122 3.01741 7.25189 3.03545 7.26213C3.30084 8.63234 3.91745 9.37008 4.64584 9.72527C5.27048 10.0299 5.92132 10.0112 6.23132 10.0023C6.27373 10.001 6.30975 10 6.33846 10H6.34428C6.60944 10 7.23806 10.0001 7.8858 9.57652C8.54579 9.14494 9.1426 8.3319 9.478 6.87666C9.50769 6.74786 9.48516 6.61254 9.41535 6.50029L6.76304 2.23593ZM4.12004 7.4995C4.36168 8.32004 4.75254 8.66474 5.08415 8.82645C5.47038 9.0148 5.85745 9.00779 6.18157 9.00193C6.23572 9.00095 6.28812 9 6.33846 9C6.56737 9 6.94516 8.99679 7.33851 8.73957C7.70393 8.50062 8.15738 7.99046 8.45504 6.84973L6.32229 3.42071L5.55606 4.56131L5.92428 5.18153C5.98906 5.29064 6.00993 5.42029 5.98267 5.54421C5.79272 6.40762 5.44606 6.92861 5.02495 7.21709C4.66233 7.4655 4.30685 7.49582 4.12004 7.4995ZM3.50653 6.37911C3.35758 6.28718 3.14281 6.0776 3.02497 5.53907L4.03292 3.95464L4.96011 5.51636C4.80696 6.07704 4.59504 6.29946 4.4598 6.3921C4.30658 6.49706 4.16299 6.5 4.04763 6.5C3.89311 6.5 3.69375 6.49467 3.50653 6.37911Z" fill="#00B2FF"/>
</svg>
