<svg width="13" height="12" viewBox="0 0 13 12" fill="none" xmlns="http://www.w3.org/2000/svg">
<mask id="path-1-inside-1_333_794" fill="white">
<path fill-rule="evenodd" clip-rule="evenodd" d="M5.93478 9.98945C5.5654 10.1313 5.16239 10.2093 4.74045 10.2093C2.95916 10.2093 1.51514 8.81927 1.51514 7.10463C1.51514 5.38999 2.95916 4 4.74045 4C6.15748 4 7.36108 4.87963 7.79408 6.10258C9.14709 6.2346 10.191 7.08516 10.191 8.11474C10.4214 9.90914 7.54161 10.5062 6.04414 10.0285C6.00728 10.0168 5.97081 10.0037 5.93478 9.98945Z"/>
</mask>
<path d="M5.93478 9.98945L6.30342 9.05988L5.94066 8.91602L5.57635 9.05589L5.93478 9.98945ZM7.79408 6.10258L6.85142 6.43634L7.06376 7.03607L7.69696 7.09786L7.79408 6.10258ZM10.191 8.11474H9.19098V8.17867L9.19912 8.24208L10.191 8.11474ZM6.04414 10.0285L6.34802 9.07584L6.34801 9.07584L6.04414 10.0285ZM5.57635 9.05589C5.32007 9.15429 5.03846 9.20926 4.74045 9.20926V11.2093C5.28631 11.2093 5.81074 11.1083 6.29321 10.923L5.57635 9.05589ZM4.74045 9.20926C3.47516 9.20926 2.51514 8.23139 2.51514 7.10463H0.515137C0.515137 9.40716 2.44316 11.2093 4.74045 11.2093V9.20926ZM2.51514 7.10463C2.51514 5.97788 3.47516 5 4.74045 5V3C2.44316 3 0.515137 4.80211 0.515137 7.10463H2.51514ZM4.74045 5C5.74072 5 6.56208 5.61915 6.85142 6.43634L8.73674 5.76883C8.16008 4.14012 6.57424 3 4.74045 3V5ZM7.69696 7.09786C8.80726 7.20619 9.19098 7.83175 9.19098 8.11474H11.191C11.191 6.33857 9.48693 5.26301 7.89119 5.10731L7.69696 7.09786ZM9.19912 8.24208C9.21768 8.38664 9.18428 8.48024 9.09542 8.58267C8.98335 8.71186 8.76777 8.86092 8.429 8.98197C7.73255 9.23084 6.86426 9.2405 6.34802 9.07584L5.74026 10.9813C6.72149 11.2942 8.0418 11.2442 9.102 10.8653C9.64155 10.6725 10.1963 10.3657 10.6062 9.89323C11.0393 9.39397 11.2795 8.74004 11.1828 7.9874L9.19912 8.24208ZM6.34801 9.07584C6.33338 9.07117 6.31851 9.06586 6.30342 9.05988L5.56615 10.919C5.62312 10.9416 5.68118 10.9624 5.74027 10.9813L6.34801 9.07584Z" fill="#00B2FF" mask="url(#path-1-inside-1_333_794)"/>
<ellipse cx="8.07414" cy="5.76528" rx="2.05052" ry="2.15163" fill="#FFB800"/>
<path d="M11.1499 5.76538H11.6625" stroke="#FFB800" stroke-linecap="round"/>
<path d="M10.1246 3.45618L10.4871 3.07582" stroke="#FFB800" stroke-linecap="round"/>
<path d="M5.87347 3.45618L5.51099 3.07582" stroke="#FFB800" stroke-linecap="round"/>
<path d="M10.4871 8.29724L10.1246 7.91688" stroke="#FFB800" stroke-linecap="round"/>
<path d="M8.0741 2.53784V1.99993" stroke="#FFB800" stroke-linecap="round"/>
</svg>
