<svg width="15" height="15" viewBox="0 0 15 15" fill="none" xmlns="http://www.w3.org/2000/svg">
<g clip-path="url(#clip0_342_740)">
<path d="M12.425 12.9404L8.92505 9.44037M10.0917 6.5237C10.0917 7.05993 9.9861 7.59091 9.78089 8.08633C9.57568 8.58174 9.27491 9.03188 8.89573 9.41105C8.51656 9.79023 8.06642 10.091 7.57101 10.2962C7.07559 10.5014 6.54461 10.607 6.00838 10.607C5.47215 10.607 4.94117 10.5014 4.44576 10.2962C3.95035 10.091 3.5002 9.79023 3.12103 9.41105C2.74186 9.03188 2.44108 8.58174 2.23587 8.08633C2.03067 7.59091 1.92505 7.05993 1.92505 6.5237C1.92505 5.44073 2.35526 4.40212 3.12103 3.63635C3.8868 2.87058 4.92541 2.44037 6.00838 2.44037C7.09135 2.44037 8.12996 2.87058 8.89573 3.63635C9.66151 4.40212 10.0917 5.44073 10.0917 6.5237Z" stroke="white" stroke-width="2" stroke-linecap="round" stroke-linejoin="round"/>
</g>
<defs>
<clipPath id="clip0_342_740">
<rect width="14" height="14" fill="white" transform="translate(0.175049 0.690369)"/>
</clipPath>
</defs>
</svg>
