<svg width="15" height="15" viewBox="0 0 15 15" fill="none" xmlns="http://www.w3.org/2000/svg">
<path d="M6.69954 3.60703H3.78288C3.47346 3.60703 3.17671 3.72994 2.95792 3.94874C2.73913 4.16753 2.61621 4.46428 2.61621 4.77369V11.1904C2.61621 11.4998 2.73913 11.7965 2.95792 12.0153C3.17671 12.2341 3.47346 12.357 3.78288 12.357H10.1995C10.509 12.357 10.8057 12.2341 11.0245 12.0153C11.2433 11.7965 11.3662 11.4998 11.3662 11.1904V8.2737M10.5414 2.78219C10.649 2.67077 10.7777 2.58189 10.9201 2.52074C11.0624 2.4596 11.2155 2.42742 11.3704 2.42607C11.5253 2.42472 11.6789 2.45424 11.8223 2.5129C11.9657 2.57156 12.096 2.65819 12.2055 2.76773C12.315 2.87728 12.4017 3.00754 12.4603 3.15092C12.519 3.29429 12.5485 3.44792 12.5472 3.60283C12.5458 3.75774 12.5136 3.91083 12.4525 4.05317C12.3914 4.19551 12.3025 4.32424 12.191 4.43186L7.18254 9.44036H5.53288V7.7907L10.5414 2.78219Z" stroke="white" stroke-width="2" stroke-linecap="round" stroke-linejoin="round"/>
</svg>
