<?xml version="1.0" encoding="utf-8"?>
<!-- Generator: Adobe Illustrator 19.0.0, SVG Export Plug-In . SVG Version: 6.00 Build 0)  -->
<svg version="1.1" id="Layer_1" xmlns="http://www.w3.org/2000/svg" xmlns:xlink="http://www.w3.org/1999/xlink" x="0px" y="0px"
	 viewBox="-575 265 214 240" style="enable-background:new -575 265 214 240;" xml:space="preserve">
<style type="text/css">
	.st0{fill:#FAD605;}
	.st1{fill:#25185A;}
</style>
<g id="Layer_x0020_1">
	<g id="_2011356311568">
		<rect x="-575" y="265" class="st0" width="214" height="240"/>
		<path class="st1" d="M-575,265v240h214V265H-575z M-368,498h-200V272h200V498z"/>
		<path class="st1" d="M-562,491h11c-1-2-1-4-1-5c0-26,21-47,46-47s46,21,46,47c0,1,0,3,0,5h86v-70h-12c1,2,1,3,1,5
			c0,21-16,37-36,37s-37-16-37-37V279h-75v14c33,0,60,28,60,61c0,34-27,62-60,62h-29V491z"/>
	</g>
</g>
</svg>
