<svg width="17" height="19" viewBox="0 0 17 19" fill="none" xmlns="http://www.w3.org/2000/svg">
<path fill-rule="evenodd" clip-rule="evenodd" d="M12.8817 14.5249C15.0618 13.1214 16.5021 10.6984 16.5021 7.94453C16.5021 3.60398 12.924 0.0852661 8.51031 0.0852661C4.09659 0.0852661 0.518555 3.60398 0.518555 7.94453C0.518555 10.6326 1.89079 13.0054 3.98394 14.4226L8.61285 18.9427L12.8817 14.5249Z" fill="#00B2FF"/>
<path d="M14.5037 7.9445C14.5037 11.1999 11.8202 13.8389 8.50993 13.8389C5.19964 13.8389 2.51611 11.1999 2.51611 7.9445C2.51611 4.68908 5.19964 2.05005 8.50993 2.05005C11.8202 2.05005 14.5037 4.68908 14.5037 7.9445Z" fill="white"/>
<path fill-rule="evenodd" clip-rule="evenodd" d="M9.2769 4.23861C9.18692 4.09648 9.03149 4.00913 8.86329 4.00615C8.6951 4.00318 8.53668 4.08498 8.44172 4.22384L7.50673 5.59116L6.99155 4.73867C6.90243 4.5912 6.74367 4.50001 6.57139 4.49734C6.39911 4.49466 6.23759 4.58088 6.14393 4.7255L4.59374 7.11942C4.52656 7.22316 4.50018 7.34812 4.51971 7.47016C4.6603 8.34912 5.03188 8.87824 5.50068 9.16249C5.51804 9.17302 5.5354 9.18312 5.55277 9.19283C5.81969 10.5407 6.43814 11.2655 7.16496 11.6137C7.78808 11.9122 8.43685 11.8939 8.74698 11.8851L8.74704 11.8851C8.78951 11.8839 8.82562 11.8829 8.85445 11.8829H8.86051C9.12509 11.883 9.75184 11.883 10.3984 11.4677C11.0587 11.0435 11.6573 10.243 11.9935 8.80962C12.0242 8.67893 12.001 8.54139 11.9292 8.42796L9.2769 4.23861ZM6.63943 9.42635C6.88024 10.219 7.26675 10.5536 7.59701 10.7118C7.98469 10.8975 8.37372 10.8906 8.69793 10.8848H8.69796C8.75203 10.8839 8.8043 10.8829 8.85445 10.8829C9.08409 10.8829 9.46357 10.8796 9.8579 10.6263C10.2223 10.3923 10.673 9.89428 10.9697 8.78191L8.83837 5.41539L8.07508 6.53161L8.43826 7.13258C8.50493 7.24289 8.52642 7.37468 8.49825 7.50045C8.3075 8.35224 7.95915 8.866 7.53753 9.14975C7.17812 9.39163 6.82635 9.42244 6.63943 9.42635ZM6.01915 8.3074C5.87097 8.21755 5.65932 8.01474 5.54207 7.49472L6.54899 5.93977L7.47479 7.47172C7.32266 8.0144 7.1134 8.22982 6.9792 8.32013C6.82508 8.42386 6.67979 8.42691 6.56362 8.42691C6.40859 8.42691 6.20749 8.4216 6.01915 8.3074Z" fill="#00B2FF"/>
</svg>
