<svg width="17" height="20" viewBox="0 0 17 20" fill="none" xmlns="http://www.w3.org/2000/svg">
<path fill-rule="evenodd" clip-rule="evenodd" d="M12.8818 14.9971C15.0619 13.5936 16.5021 11.1706 16.5021 8.41676C16.5021 4.07621 12.924 0.557495 8.51031 0.557495C4.09659 0.557495 0.518555 4.07621 0.518555 8.41676C0.518555 11.1048 1.89074 13.4776 3.98383 14.8947L8.61285 19.415L12.8818 14.9971Z" fill="#FFB800"/>
<path d="M14.5037 8.41676C14.5037 11.6722 11.8202 14.3112 8.50993 14.3112C5.19964 14.3112 2.51611 11.6722 2.51611 8.41676C2.51611 5.16134 5.19964 2.52231 8.50993 2.52231C11.8202 2.52231 14.5037 5.16134 14.5037 8.41676Z" fill="white"/>
<mask id="path-3-inside-1_342_945" fill="white">
<path fill-rule="evenodd" clip-rule="evenodd" d="M7.93478 12.336C7.5654 12.4753 7.16239 12.552 6.74045 12.552C4.95916 12.552 3.51514 11.1864 3.51514 9.50195C3.51514 7.81747 4.95916 6.45193 6.74045 6.45193C8.15748 6.45193 9.36108 7.31609 9.79408 8.51753C11.1471 8.64722 12.191 9.48282 12.191 10.4943C12.4214 12.2571 9.54161 12.8437 8.04414 12.3744C8.00728 12.3629 7.97081 12.3501 7.93478 12.336Z"/>
</mask>
<path d="M7.93478 12.336L8.2978 11.4042L7.94057 11.2651L7.58187 11.4004L7.93478 12.336ZM9.79408 8.51753L8.85331 8.85658L9.06808 9.45252L9.69866 9.51297L9.79408 8.51753ZM12.191 10.4943H11.191V10.5594L11.1994 10.6239L12.191 10.4943ZM8.04414 12.3744L7.74512 13.3287L7.74512 13.3287L8.04414 12.3744ZM7.58187 11.4004C7.32426 11.4975 7.04074 11.552 6.74045 11.552V13.552C7.28403 13.552 7.80654 13.4532 8.2877 13.2717L7.58187 11.4004ZM6.74045 11.552C5.45805 11.552 4.51514 10.5822 4.51514 9.50195H2.51514C2.51514 11.7906 4.46026 13.552 6.74045 13.552V11.552ZM4.51514 9.50195C4.51514 8.42168 5.45805 7.45193 6.74045 7.45193V5.45193C4.46026 5.45193 2.51514 7.21327 2.51514 9.50195H4.51514ZM6.74045 7.45193C7.75183 7.45193 8.56856 8.06649 8.85331 8.85658L10.7348 8.17848C10.1536 6.5657 8.56314 5.45193 6.74045 5.45193V7.45193ZM9.69866 9.51297C10.2045 9.56146 10.6096 9.7391 10.8671 9.94951C11.1226 10.1584 11.191 10.3561 11.191 10.4943H13.191C13.191 9.621 12.7374 8.89519 12.1328 8.40097C11.53 7.90829 10.7366 7.60329 9.88949 7.52209L9.69866 9.51297ZM11.1994 10.6239C11.2164 10.7541 11.1877 10.8379 11.1012 10.9358C10.9904 11.0613 10.775 11.2082 10.4343 11.3278C9.73529 11.5732 8.86305 11.5831 8.34315 11.4202L7.74512 13.3287C8.7227 13.635 10.0391 13.5862 11.0967 13.2149C11.6343 13.0262 12.1892 12.7253 12.6004 12.2596C13.0358 11.7665 13.2807 11.1159 13.1825 10.3647L11.1994 10.6239ZM8.34316 11.4202C8.32823 11.4155 8.3131 11.4102 8.2978 11.4042L7.57177 13.2678C7.62852 13.2899 7.68633 13.3103 7.74512 13.3287L8.34316 11.4202Z" fill="#00B2FF" mask="url(#path-3-inside-1_342_945)"/>
<ellipse cx="10.0742" cy="8.18616" rx="2.05052" ry="2.11378" fill="#FFB800"/>
<path d="M13.1499 8.18625H13.6625" stroke="#FFB800" stroke-linecap="round"/>
<path d="M12.1248 5.91769L12.4872 5.54403" stroke="#FFB800" stroke-linecap="round"/>
<path d="M7.87354 5.91769L7.51105 5.54403" stroke="#FFB800" stroke-linecap="round"/>
<path d="M12.4871 10.6736L12.1246 10.2999" stroke="#FFB800" stroke-linecap="round"/>
<path d="M10.0742 5.0155V4.48706" stroke="#FFB800" stroke-linecap="round"/>
</svg>
