<svg width="68" height="24" viewBox="0 0 68 24" fill="none" xmlns="http://www.w3.org/2000/svg">
<rect width="68" height="24" rx="12" fill="#0F172A" fill-opacity="0.08"/>
<circle cx="17" cy="12" r="3" fill="#0F172A"/>
<path d="M26.9588 7.27273H28.5568L31.3352 14.0568H31.4375L34.2159 7.27273H35.8139V16H34.5611V9.68466H34.4801L31.9062 15.9872H30.8665L28.2926 9.6804H28.2116V16H26.9588V7.27273ZM37.2979 8.40625V7.27273H44.0522V8.40625H41.3292V16H40.0167V8.40625H37.2979ZM52.4183 10.1108H51.0888C51.0376 9.8267 50.9425 9.5767 50.8033 9.3608C50.6641 9.14489 50.4936 8.96165 50.2919 8.81108C50.0902 8.66051 49.8643 8.54687 49.6143 8.47017C49.3672 8.39347 49.1044 8.35511 48.826 8.35511C48.3232 8.35511 47.8729 8.48153 47.4751 8.73438C47.0803 8.98722 46.7678 9.35795 46.5376 9.84659C46.3104 10.3352 46.1967 10.9318 46.1967 11.6364C46.1967 12.3466 46.3104 12.946 46.5376 13.4347C46.7678 13.9233 47.0817 14.2926 47.4794 14.5426C47.8771 14.7926 48.3246 14.9176 48.8217 14.9176C49.0973 14.9176 49.3587 14.8807 49.6058 14.8068C49.8558 14.7301 50.0817 14.6179 50.2834 14.4702C50.4851 14.3224 50.6555 14.142 50.7947 13.929C50.9368 13.7131 51.0348 13.4659 51.0888 13.1875L52.4183 13.1918C52.3473 13.6207 52.2095 14.0156 52.005 14.3764C51.8033 14.7344 51.5433 15.044 51.2251 15.3054C50.9098 15.5639 50.549 15.7642 50.1428 15.9062C49.7365 16.0483 49.2933 16.1193 48.8132 16.1193C48.0575 16.1193 47.3842 15.9403 46.7933 15.5824C46.2024 15.2216 45.7365 14.706 45.3956 14.0355C45.0575 13.3651 44.8885 12.5653 44.8885 11.6364C44.8885 10.7045 45.0589 9.90483 45.3999 9.23722C45.7408 8.56676 46.2067 8.05256 46.7976 7.6946C47.3885 7.33381 48.0604 7.15341 48.8132 7.15341C49.2763 7.15341 49.7081 7.22017 50.1087 7.35369C50.5121 7.48437 50.8743 7.67756 51.1953 7.93324C51.5163 8.18608 51.782 8.49574 51.9922 8.86222C52.2024 9.22585 52.3445 9.64205 52.4183 10.1108Z" fill="#0F172A"/>
</svg>
