<?xml version="1.0" encoding="UTF-8" standalone="no"?>
<!-- Generator: Adobe Illustrator 19.0.0, SVG Export Plug-In . SVG Version: 6.00 Build 0)  -->

<svg
   version="1.1"
   id="Layer_1"
   x="0px"
   y="0px"
   viewBox="-469 271 18.299999 17.200001"
   xml:space="preserve"
   sodipodi:docname="873085a2556f7a2fd982a3e74e149b6a.svg"
   width="18.299999"
   height="17.200001"
   xmlns:inkscape="http://www.inkscape.org/namespaces/inkscape"
   xmlns:sodipodi="http://sodipodi.sourceforge.net/DTD/sodipodi-0.dtd"
   xmlns="http://www.w3.org/2000/svg"
   xmlns:svg="http://www.w3.org/2000/svg"><defs
   id="defs19" /><sodipodi:namedview
   id="namedview17"
   pagecolor="#ffffff"
   bordercolor="#666666"
   borderopacity="1.0"
   inkscape:pageshadow="2"
   inkscape:pageopacity="0.0"
   inkscape:pagecheckerboard="0" />
<style
   type="text/css"
   id="style2">
	.st0{opacity:0.8;}
	.st1{fill:#637381;}
</style>
<g
   class="st0"
   id="g14"
   transform="translate(-0.8,-1.4)">
	<path
   class="st1"
   d="m -451.8,274.4 c 0,-1.1 -0.9,-2 -2,-2 H -464 c -1.1,0 -2,0.9 -2,2 v 14.4 h -2.2 v 0.8 h 18.3 v -0.8 h -2 v -14.4 z m -13.3,0 c 0,-0.6 0.5,-1.1 1.1,-1.1 h 10.2 c 0.6,0 1.1,0.5 1.1,1.1 v 14.4 h -3.2 v -1.9 c 0,-1.1 -0.9,-2 -2,-2 h -2.1 c -1.1,0 -2,0.9 -2,2 v 1.9 h -3.2 v -14.4 z m 8.4,14.4 h -4.4 v -1.9 c 0,-0.6 0.5,-1.1 1.1,-1.1 h 2.1 c 0.6,0 1.1,0.5 1.1,1.1 v 1.9 z"
   id="path4" />
	<path
   class="st1"
   d="m -462.4,278.7 h 1.9 c 0.6,0 1,-0.5 1,-1 v -1.9 c 0,-0.6 -0.5,-1 -1,-1 h -1.9 c -0.6,0 -1,0.5 -1,1 v 1.9 c 0,0.5 0.4,1 1,1 z m -0.2,-3 c 0,-0.1 0.1,-0.2 0.2,-0.2 h 1.9 c 0.1,0 0.2,0.1 0.2,0.2 v 1.9 c 0,0.1 -0.1,0.2 -0.2,0.2 h -1.9 c -0.1,0 -0.2,-0.1 -0.2,-0.2 z"
   id="path6" />
	<path
   class="st1"
   d="m -457.4,278.7 h 1.9 c 0.6,0 1,-0.5 1,-1 v -1.9 c 0,-0.6 -0.5,-1 -1,-1 h -1.9 c -0.6,0 -1,0.5 -1,1 v 1.9 c 0,0.5 0.4,1 1,1 z m -0.2,-3 c 0,-0.1 0.1,-0.2 0.2,-0.2 h 1.9 c 0.1,0 0.2,0.1 0.2,0.2 v 1.9 c 0,0.1 -0.1,0.2 -0.2,0.2 h -1.9 c -0.1,0 -0.2,-0.1 -0.2,-0.2 z"
   id="path8" />
	<path
   class="st1"
   d="m -460.5,283.4 c 0.6,0 1,-0.5 1,-1 v -1.9 c 0,-0.6 -0.5,-1 -1,-1 h -1.9 c -0.6,0 -1,0.5 -1,1 v 1.9 c 0,0.6 0.5,1 1,1 z m -2.1,-1 v -1.9 c 0,-0.1 0.1,-0.2 0.2,-0.2 h 1.9 c 0.1,0 0.2,0.1 0.2,0.2 v 1.9 c 0,0.1 -0.1,0.2 -0.2,0.2 h -1.9 c -0.1,0 -0.2,-0.1 -0.2,-0.2 z"
   id="path10" />
	<path
   class="st1"
   d="m -457.4,283.4 h 1.9 c 0.6,0 1,-0.5 1,-1 v -1.9 c 0,-0.6 -0.5,-1 -1,-1 h -1.9 c -0.6,0 -1,0.5 -1,1 v 1.9 c 0,0.6 0.4,1 1,1 z m -0.2,-2.9 c 0,-0.1 0.1,-0.2 0.2,-0.2 h 1.9 c 0.1,0 0.2,0.1 0.2,0.2 v 1.9 c 0,0.1 -0.1,0.2 -0.2,0.2 h -1.9 c -0.1,0 -0.2,-0.1 -0.2,-0.2 z"
   id="path12" />
</g>
</svg>
