<?xml version="1.0" encoding="utf-8"?>
<!-- Generator: Adobe Illustrator 19.0.0, SVG Export Plug-In . SVG Version: 6.00 Build 0)  -->
<svg version="1.1" id="Layer_1" xmlns="http://www.w3.org/2000/svg" xmlns:xlink="http://www.w3.org/1999/xlink" x="0px" y="0px"
	 viewBox="54 -80 356.9 356.9" style="enable-background:new 54 -80 356.9 356.9;" xml:space="preserve">
<style type="text/css">
	.st0{fill:#FFC928;}
	.st1{fill:#364878;}
</style>
<g id="Layer_x0020_1">
	<g id="_1879737911776">
		<rect x="54" y="-80" class="st0" width="356.9" height="356.9"/>
		<path class="st1" d="M112.4-80h138v242.4l0,0.1c0,39.3,31.9,71.2,71.2,71.2c39.3,0,71.2-31.9,71.2-71.2h18.2v114.4H250.4h0
			c0-0.2,0-0.4,0-0.6c0-49.3-40-89.3-89.3-89.3c-49.3,0-89.3,40-89.3,89.3c0,0.2,0,0.4,0,0.6H54V153.3h58.4h0
			c59.7,0,108-48.4,108-108c0-59.7-48.4-108-108-108h0L112.4-80L112.4-80z"/>
	</g>
</g>
</svg>
