<svg width="83" height="24" viewBox="0 0 83 24" fill="none" xmlns="http://www.w3.org/2000/svg">
<rect width="83" height="24" rx="12" fill="#FBB040" fill-opacity="0.08"/>
<circle cx="17" cy="12" r="3" fill="#FBB040"/>
<path d="M31.7188 9.56534C31.6733 9.16193 31.4858 8.84943 31.1562 8.62784C30.8267 8.40341 30.4119 8.29119 29.9119 8.29119C29.554 8.29119 29.2443 8.34801 28.983 8.46165C28.7216 8.57244 28.5185 8.72585 28.3736 8.92188C28.2315 9.11506 28.1605 9.33523 28.1605 9.58239C28.1605 9.78977 28.2088 9.96875 28.3054 10.1193C28.4048 10.2699 28.5341 10.3963 28.6932 10.4986C28.8551 10.598 29.0284 10.6818 29.2131 10.75C29.3977 10.8153 29.5753 10.8693 29.7457 10.9119L30.598 11.1335C30.8764 11.2017 31.1619 11.294 31.4545 11.4105C31.7472 11.527 32.0185 11.6804 32.2685 11.8707C32.5185 12.0611 32.7202 12.2969 32.8736 12.5781C33.0298 12.8594 33.108 13.196 33.108 13.5881C33.108 14.0824 32.9801 14.5213 32.7244 14.9048C32.4716 15.2884 32.1037 15.5909 31.6207 15.8125C31.1406 16.0341 30.5597 16.1449 29.8778 16.1449C29.2244 16.1449 28.6591 16.0412 28.1818 15.8338C27.7045 15.6264 27.331 15.3324 27.0611 14.9517C26.7912 14.5682 26.642 14.1136 26.6136 13.5881H27.9347C27.9602 13.9034 28.0625 14.1662 28.2415 14.3764C28.4233 14.5838 28.6548 14.7386 28.9361 14.8409C29.2202 14.9403 29.5312 14.9901 29.8693 14.9901C30.2415 14.9901 30.5724 14.9318 30.8622 14.8153C31.1548 14.696 31.3849 14.5312 31.5526 14.321C31.7202 14.108 31.804 13.8594 31.804 13.5753C31.804 13.3168 31.7301 13.1051 31.5824 12.9403C31.4375 12.7756 31.2401 12.6392 30.9901 12.5312C30.7429 12.4233 30.4631 12.3281 30.1506 12.2457L29.1193 11.9645C28.4205 11.7741 27.8665 11.4943 27.4574 11.125C27.0511 10.7557 26.848 10.267 26.848 9.65909C26.848 9.15625 26.9844 8.71733 27.2571 8.34233C27.5298 7.96733 27.8991 7.67614 28.3651 7.46875C28.831 7.25852 29.3565 7.15341 29.9418 7.15341C30.5327 7.15341 31.054 7.2571 31.5057 7.46449C31.9602 7.67188 32.3182 7.95739 32.5795 8.32102C32.8409 8.68182 32.9773 9.09659 32.9886 9.56534H31.7188ZM34.5792 16V9.45455H35.8533V16H34.5792ZM35.2227 8.4446C35.0011 8.4446 34.8107 8.37074 34.6516 8.22301C34.4954 8.07244 34.4173 7.89347 34.4173 7.68608C34.4173 7.47585 34.4954 7.29687 34.6516 7.14915C34.8107 6.99858 35.0011 6.9233 35.2227 6.9233C35.4442 6.9233 35.6332 6.99858 35.7894 7.14915C35.9485 7.29687 36.0281 7.47585 36.0281 7.68608C36.0281 7.89347 35.9485 8.07244 35.7894 8.22301C35.6332 8.37074 35.4442 8.4446 35.2227 8.4446ZM39.4723 16.1449C39.0575 16.1449 38.6825 16.0682 38.3473 15.9148C38.0121 15.7585 37.7464 15.5327 37.5504 15.2372C37.3572 14.9418 37.2607 14.5795 37.2607 14.1506C37.2607 13.7812 37.3317 13.4773 37.4737 13.2386C37.6158 13 37.8075 12.8111 38.049 12.6719C38.2905 12.5327 38.5604 12.4276 38.8587 12.3565C39.157 12.2855 39.4609 12.2315 39.7706 12.1946C40.1626 12.1491 40.4808 12.1122 40.7251 12.0838C40.9695 12.0526 41.147 12.0028 41.2578 11.9347C41.3686 11.8665 41.424 11.7557 41.424 11.6023V11.5724C41.424 11.2003 41.3189 10.9119 41.1087 10.7074C40.9013 10.5028 40.5916 10.4006 40.1797 10.4006C39.7507 10.4006 39.4126 10.4957 39.1655 10.6861C38.9212 10.8736 38.7521 11.0824 38.6584 11.3125L37.4609 11.0398C37.603 10.642 37.8104 10.321 38.0831 10.0767C38.3587 9.82955 38.6754 9.65057 39.0334 9.53977C39.3913 9.42614 39.7678 9.36932 40.1626 9.36932C40.424 9.36932 40.701 9.40057 40.9936 9.46307C41.2891 9.52273 41.5646 9.63352 41.8203 9.79545C42.0788 9.95739 42.2905 10.1889 42.4553 10.4901C42.62 10.7884 42.7024 11.1761 42.7024 11.6534V16H41.4581V15.1051H41.407C41.3246 15.2699 41.201 15.4318 41.0362 15.5909C40.8714 15.75 40.6598 15.8821 40.4013 15.9872C40.1428 16.0923 39.8331 16.1449 39.4723 16.1449ZM39.7493 15.1222C40.1016 15.1222 40.4027 15.0526 40.6527 14.9134C40.9055 14.7741 41.0973 14.5923 41.228 14.3679C41.3615 14.1406 41.4283 13.8977 41.4283 13.6392V12.7955C41.3828 12.8409 41.2947 12.8835 41.1641 12.9233C41.0362 12.9602 40.8899 12.9929 40.7251 13.0213C40.5604 13.0469 40.3999 13.071 40.2436 13.0938C40.0874 13.1136 39.9567 13.1307 39.8516 13.1449C39.6044 13.1761 39.3786 13.2287 39.174 13.3026C38.9723 13.3764 38.8104 13.483 38.6882 13.6222C38.5689 13.7585 38.5092 13.9403 38.5092 14.1676C38.5092 14.483 38.6257 14.7216 38.8587 14.8835C39.0916 15.0426 39.3885 15.1222 39.7493 15.1222ZM47.1438 18.5909C46.6239 18.5909 46.1765 18.5227 45.8015 18.3864C45.4293 18.25 45.1254 18.0696 44.8896 17.8452C44.6538 17.6207 44.4776 17.375 44.3612 17.108L45.4563 16.6562C45.533 16.7812 45.6353 16.9134 45.7631 17.0526C45.8938 17.1946 46.07 17.3153 46.2915 17.4148C46.516 17.5142 46.8043 17.5639 47.1566 17.5639C47.6396 17.5639 48.0387 17.446 48.354 17.2102C48.6694 16.9773 48.8271 16.6051 48.8271 16.0938V14.8068H48.7461C48.6694 14.946 48.5586 15.1009 48.4137 15.2713C48.2717 15.4418 48.0756 15.5895 47.8256 15.7145C47.5756 15.8395 47.2504 15.902 46.8498 15.902C46.3327 15.902 45.8668 15.7812 45.4521 15.5398C45.0401 15.2955 44.7134 14.9361 44.4719 14.4616C44.2333 13.9844 44.114 13.3977 44.114 12.7017C44.114 12.0057 44.2319 11.4091 44.4677 10.9119C44.7063 10.4148 45.033 10.0341 45.4478 9.76989C45.8626 9.50284 46.3327 9.36932 46.8583 9.36932C47.2646 9.36932 47.5927 9.4375 47.8427 9.57386C48.0927 9.70739 48.2873 9.86364 48.4265 10.0426C48.5685 10.2216 48.6779 10.3793 48.7546 10.5156H48.8484V9.45455H50.0969V16.1449C50.0969 16.7074 49.9663 17.169 49.7049 17.5298C49.4435 17.8906 49.0898 18.1577 48.6438 18.331C48.2006 18.5043 47.7006 18.5909 47.1438 18.5909ZM47.131 14.8452C47.4975 14.8452 47.8072 14.7599 48.06 14.5895C48.3157 14.4162 48.5089 14.169 48.6396 13.848C48.7731 13.5241 48.8398 13.1364 48.8398 12.6847C48.8398 12.2443 48.7745 11.8565 48.6438 11.5213C48.5131 11.1861 48.3214 10.9247 48.0685 10.7372C47.8157 10.5469 47.5032 10.4517 47.131 10.4517C46.7475 10.4517 46.4279 10.5511 46.1722 10.75C45.9165 10.946 45.7234 11.2131 45.5927 11.5511C45.4648 11.8892 45.4009 12.267 45.4009 12.6847C45.4009 13.1136 45.4663 13.4901 45.5969 13.8139C45.7276 14.1378 45.9208 14.3906 46.1765 14.5724C46.435 14.7543 46.7532 14.8452 47.131 14.8452ZM53.7106 16.1449C53.2958 16.1449 52.9208 16.0682 52.5856 15.9148C52.2504 15.7585 51.9847 15.5327 51.7887 15.2372C51.5955 14.9418 51.4989 14.5795 51.4989 14.1506C51.4989 13.7812 51.57 13.4773 51.712 13.2386C51.854 13 52.0458 12.8111 52.2873 12.6719C52.5288 12.5327 52.7987 12.4276 53.0969 12.3565C53.3952 12.2855 53.6992 12.2315 54.0089 12.1946C54.4009 12.1491 54.7191 12.1122 54.9634 12.0838C55.2077 12.0526 55.3853 12.0028 55.4961 11.9347C55.6069 11.8665 55.6623 11.7557 55.6623 11.6023V11.5724C55.6623 11.2003 55.5572 10.9119 55.3469 10.7074C55.1396 10.5028 54.8299 10.4006 54.418 10.4006C53.989 10.4006 53.6509 10.4957 53.4038 10.6861C53.1594 10.8736 52.9904 11.0824 52.8967 11.3125L51.6992 11.0398C51.8413 10.642 52.0487 10.321 52.3214 10.0767C52.5969 9.82955 52.9137 9.65057 53.2717 9.53977C53.6296 9.42614 54.006 9.36932 54.4009 9.36932C54.6623 9.36932 54.9393 9.40057 55.2319 9.46307C55.5273 9.52273 55.8029 9.63352 56.0586 9.79545C56.3171 9.95739 56.5288 10.1889 56.6935 10.4901C56.8583 10.7884 56.9407 11.1761 56.9407 11.6534V16H55.6964V15.1051H55.6452C55.5629 15.2699 55.4393 15.4318 55.2745 15.5909C55.1097 15.75 54.8981 15.8821 54.6396 15.9872C54.381 16.0923 54.0714 16.1449 53.7106 16.1449ZM53.9876 15.1222C54.3398 15.1222 54.641 15.0526 54.891 14.9134C55.1438 14.7741 55.3356 14.5923 55.4663 14.3679C55.5998 14.1406 55.6665 13.8977 55.6665 13.6392V12.7955C55.6211 12.8409 55.533 12.8835 55.4023 12.9233C55.2745 12.9602 55.1282 12.9929 54.9634 13.0213C54.7987 13.0469 54.6381 13.071 54.4819 13.0938C54.3256 13.1136 54.195 13.1307 54.0898 13.1449C53.8427 13.1761 53.6168 13.2287 53.4123 13.3026C53.2106 13.3764 53.0487 13.483 52.9265 13.6222C52.8072 13.7585 52.7475 13.9403 52.7475 14.1676C52.7475 14.483 52.864 14.7216 53.0969 14.8835C53.3299 15.0426 53.6268 15.1222 53.9876 15.1222ZM61.7965 16V15.0455L64.7496 11.9858C65.065 11.6534 65.3249 11.3622 65.5295 11.1122C65.7369 10.8594 65.8917 10.6193 65.994 10.392C66.0962 10.1648 66.1474 9.9233 66.1474 9.66761C66.1474 9.37784 66.0792 9.12784 65.9428 8.91761C65.8065 8.70455 65.6204 8.54119 65.3846 8.42756C65.1488 8.31108 64.8832 8.25284 64.5877 8.25284C64.2752 8.25284 64.0025 8.31676 63.7695 8.4446C63.5366 8.57244 63.3576 8.75284 63.2326 8.9858C63.1076 9.21875 63.0451 9.49148 63.0451 9.80398H61.788C61.788 9.27273 61.9102 8.80824 62.1545 8.41051C62.3988 8.01278 62.734 7.70455 63.1602 7.4858C63.5863 7.2642 64.0707 7.15341 64.6133 7.15341C65.1616 7.15341 65.6445 7.26278 66.0621 7.48153C66.4826 7.69744 66.8107 7.9929 67.0465 8.3679C67.2823 8.74006 67.4002 9.16051 67.4002 9.62926C67.4002 9.95312 67.3391 10.2699 67.217 10.5795C67.0977 10.8892 66.8888 11.2344 66.5906 11.6151C66.2923 11.9929 65.8775 12.4517 65.3462 12.9915L63.6119 14.8068V14.8707H67.5408V16H61.7965Z" fill="#FBB040"/>
</svg>
