<?xml version="1.0" encoding="utf-8"?>
<!-- Generator: Adobe Illustrator 19.0.0, SVG Export Plug-In . SVG Version: 6.00 Build 0)  -->
<svg version="1.1" id="Layer_1" xmlns="http://www.w3.org/2000/svg" xmlns:xlink="http://www.w3.org/1999/xlink" x="0px" y="0px"
	 viewBox="-442 244 74 73" style="enable-background:new -442 244 74 73;" xml:space="preserve">
<style type="text/css">
	.st0{fill:#FFFFFF;}
	.st1{fill:#00B2FF;}
	.st2{fill:none;stroke:#00B2FF;stroke-width:2;stroke-linecap:square;}
</style>
<ellipse class="st0" cx="-405.2" cy="280.5" rx="36.8" ry="36.5"/>
<g>
	<path class="st1" d="M-407.4,285.2l-1.1,0.6c-1.9,1-3,2.7-3,4.4c0,2.6,2.6,5.2,6.4,5.2s6.4-2.6,6.4-5.2c0-1.7-1.1-3.4-3-4.4
		l-1.1-0.6V284v-17.4c-0.1-0.1-0.3-0.2-0.5-0.3c-0.7-0.4-1.5-0.6-1.9-0.6s-1.2,0.2-1.9,0.6c-0.2,0.1-0.4,0.2-0.5,0.3V284V285.2z
		 M-409.4,266c0-0.8,2.5-2.4,4.4-2.4s4.4,1.6,4.4,2.4V284c2.4,1.3,4,3.6,4,6.2c0,4-3.8,7.2-8.4,7.2s-8.4-3.2-8.4-7.2
		c0-2.6,1.6-4.9,4-6.2V266z"/>
	<path class="st1" d="M-405,273c-0.4,0-0.9,0.3-0.9,0.8v12.4c-2.1,0.3-3.8,1.9-3.8,3.7c0,2.1,2.1,3.8,4.7,3.8s4.7-1.7,4.7-3.8
		c0-1.8-1.6-3.3-3.8-3.7v-12.4C-404.1,273.3-404.6,273-405,273z"/>
	<path class="st2" d="M-401.3,270.2h3.8 M-401.3,274.9h3.8 M-401.3,279.6h3.8"/>
</g>
</svg>
