<svg width="45" height="45" viewBox="0 0 45 45" fill="none" xmlns="http://www.w3.org/2000/svg">
<rect width="45" height="45" fill="white"/>
<path fill-rule="evenodd" clip-rule="evenodd" d="M19.1429 27.1866L18.0768 27.7496C16.193 28.7444 15.125 30.4144 15.125 32.1428C15.125 34.7543 17.7068 37.375 21.5625 37.375C25.4182 37.375 28 34.7543 28 32.1428C28 30.4144 26.932 28.7444 25.0482 27.7496L23.9821 27.1866V25.9811V8.61262C23.856 8.513 23.686 8.39468 23.475 8.27119C22.7704 7.85884 22.0219 7.625 21.5625 7.625C21.1031 7.625 20.3546 7.85884 19.65 8.27119C19.439 8.39468 19.269 8.513 19.1429 8.61262V25.9811V27.1866ZM17.1429 8.03571C17.1429 7.27498 19.6616 5.625 21.5625 5.625C23.4634 5.625 25.9821 7.27498 25.9821 8.03571V25.9811C28.3929 27.2542 30 29.5376 30 32.1428C30 36.137 26.2224 39.375 21.5625 39.375C16.9026 39.375 13.125 36.137 13.125 32.1428C13.125 29.5376 14.7321 27.2542 17.1429 25.9811V8.03571Z" fill="#00B2FF"/>
<path fill-rule="evenodd" clip-rule="evenodd" d="M21.5625 15C21.1593 15 20.625 15.2519 20.625 15.7556V28.2C18.4854 28.5475 16.875 30.0608 16.875 31.875C16.875 33.9461 18.9737 35.625 21.5625 35.625C24.1513 35.625 26.25 33.9461 26.25 31.875C26.25 30.0608 24.6396 28.5475 22.5 28.2V15.7556C22.5 15.2519 21.9657 15 21.5625 15Z" fill="#00B2FF"/>
<path d="M25.3125 12.1875H29.0625M25.3125 16.875H29.0625M25.3125 21.5625H29.0625" stroke="#00B2FF" stroke-width="2" stroke-linecap="square"/>
</svg>
