<svg width="18" height="18" viewBox="0 0 18 18" fill="none" xmlns="http://www.w3.org/2000/svg">
<path fill-rule="evenodd" clip-rule="evenodd" d="M7.87661 1.05204C8.21826 0.855165 8.60566 0.751526 9 0.751526C9.39435 0.751526 9.78177 0.855173 10.1234 1.05207C10.124 1.05237 10.1245 1.05267 10.125 1.05297L15.375 4.05296C15.7167 4.25025 16.0005 4.53392 16.198 4.87553C16.3954 5.21713 16.4996 5.60465 16.5 5.99922V12.0008C16.4996 12.3953 16.3954 12.7828 16.198 13.1244C16.0005 13.4661 15.7167 13.7497 15.375 13.947L15.3721 13.9487L10.125 16.947C10.1246 16.9473 10.1241 16.9475 10.1237 16.9478C9.78194 17.1448 9.39444 17.2485 9 17.2485C8.60558 17.2485 8.21809 17.1448 7.87639 16.9478C7.87592 16.9475 7.87546 16.9473 7.875 16.947L2.6279 13.9487L2.625 13.947C2.2833 13.7497 1.99948 13.4661 1.80202 13.1244C1.60456 12.7828 1.5004 12.3953 1.5 12.0008V5.99922C1.5004 5.60465 1.60456 5.21713 1.80202 4.87553C1.99948 4.53392 2.2833 4.25025 2.625 4.05297L2.62789 4.0513L7.87661 1.05204ZM9 2.25153C8.86835 2.25153 8.73901 2.28618 8.625 2.35201L8.62211 2.35368L3.375 5.35201C3.37461 5.35223 3.37421 5.35246 3.37382 5.35269C3.26044 5.41842 3.16626 5.51272 3.10067 5.62619C3.03491 5.73997 3.00019 5.86902 3 6.00043V11.9995C3.00019 12.131 3.03491 12.26 3.10067 12.3738C3.16626 12.4873 3.26044 12.5816 3.37382 12.6473C3.37421 12.6475 3.37461 12.6477 3.375 12.648L8.625 15.648C8.73901 15.7138 8.86835 15.7485 9 15.7485C9.13165 15.7485 9.26098 15.7138 9.375 15.648L9.3779 15.6463L14.625 12.648C14.6254 12.6477 14.6258 12.6475 14.6262 12.6473C14.7396 12.5816 14.8337 12.4873 14.8993 12.3738C14.9651 12.2599 14.9999 12.1307 15 11.9992V6.00076C14.9999 5.86923 14.9651 5.74006 14.8993 5.62619C14.8337 5.51272 14.7396 5.41843 14.6262 5.3527C14.6258 5.35247 14.6254 5.35224 14.625 5.35201L9.375 2.35201C9.26098 2.28619 9.13165 2.25153 9 2.25153Z" fill="white"/>
<path fill-rule="evenodd" clip-rule="evenodd" d="M1.8033 4.84443C2.0107 4.48588 2.4695 4.36336 2.82804 4.57077L9 8.14103L15.172 4.57077C15.5305 4.36336 15.9893 4.48588 16.1967 4.84443C16.4041 5.20298 16.2816 5.66177 15.923 5.86918L9.37554 9.65668C9.14322 9.79107 8.85678 9.79107 8.62446 9.65668L2.07696 5.86918C1.71841 5.66177 1.59589 5.20298 1.8033 4.84443Z" fill="white"/>
<path fill-rule="evenodd" clip-rule="evenodd" d="M9 8.25C9.41421 8.25 9.75 8.58579 9.75 9V16.56C9.75 16.9742 9.41421 17.31 9 17.31C8.58579 17.31 8.25 16.9742 8.25 16.56V9C8.25 8.58579 8.58579 8.25 9 8.25Z" fill="white"/>
</svg>
