<svg width="16" height="17" viewBox="0 0 16 17" fill="none" xmlns="http://www.w3.org/2000/svg">
<path fill-rule="evenodd" clip-rule="evenodd" d="M1.38472 2.45491C1.38472 2.08814 1.67103 1.7908 2.02421 1.7908H6.50058C6.85376 1.7908 7.14006 2.08814 7.14006 2.45491V7.1037C7.14006 7.47048 6.85376 7.76781 6.50058 7.76781H2.02421C1.67103 7.76781 1.38472 7.47048 1.38472 7.1037V2.45491ZM2.66369 3.11903V6.43959H5.8611V3.11903H2.66369Z" fill="white"/>
<path fill-rule="evenodd" clip-rule="evenodd" d="M8.41903 2.45491C8.41903 2.08814 8.70533 1.7908 9.05851 1.7908H13.5349C13.8881 1.7908 14.1744 2.08814 14.1744 2.45491V7.1037C14.1744 7.47048 13.8881 7.76781 13.5349 7.76781H9.05851C8.70533 7.76781 8.41903 7.47048 8.41903 7.1037V2.45491ZM9.69799 3.11903V6.43959H12.8954V3.11903H9.69799Z" fill="white"/>
<path fill-rule="evenodd" clip-rule="evenodd" d="M8.41903 9.76015C8.41903 9.39337 8.70533 9.09604 9.05851 9.09604H13.5349C13.8881 9.09604 14.1744 9.39337 14.1744 9.76015V14.4089C14.1744 14.7757 13.8881 15.073 13.5349 15.073H9.05851C8.70533 15.073 8.41903 14.7757 8.41903 14.4089V9.76015ZM9.69799 10.4243V13.7448H12.8954V10.4243H9.69799Z" fill="white"/>
<path fill-rule="evenodd" clip-rule="evenodd" d="M1.38472 9.76015C1.38472 9.39337 1.67103 9.09604 2.02421 9.09604H6.50058C6.85376 9.09604 7.14006 9.39337 7.14006 9.76015V14.4089C7.14006 14.7757 6.85376 15.073 6.50058 15.073H2.02421C1.67103 15.073 1.38472 14.7757 1.38472 14.4089V9.76015ZM2.66369 10.4243V13.7448H5.8611V10.4243H2.66369Z" fill="white"/>
</svg>
