<svg width="16" height="17" viewBox="0 0 16 17" fill="none" xmlns="http://www.w3.org/2000/svg">
<path fill-rule="evenodd" clip-rule="evenodd" d="M3.30312 3.17948C3.13352 3.17948 2.97087 3.24945 2.85094 3.37399C2.73102 3.49854 2.66364 3.66746 2.66364 3.84359V13.1412C2.66364 13.3173 2.73102 13.4862 2.85094 13.6108C2.97087 13.7353 3.13352 13.8053 3.30312 13.8053H5.86105C6.21423 13.8053 6.50053 14.1026 6.50053 14.4694C6.50053 14.8362 6.21423 15.1335 5.86105 15.1335H3.30312C2.79432 15.1335 2.30636 14.9236 1.94658 14.55C1.5868 14.1763 1.38468 13.6696 1.38468 13.1412V3.84359C1.38468 3.31519 1.5868 2.80843 1.94658 2.4348C2.30636 2.06116 2.79432 1.85126 3.30312 1.85126H5.86105C6.21423 1.85126 6.50053 2.14859 6.50053 2.51537C6.50053 2.88215 6.21423 3.17948 5.86105 3.17948H3.30312Z" fill="white" fill-opacity="0.5"/>
<path d="M10.3374 11.8129L13.5348 8.49237L10.3374 5.17181" stroke="white" stroke-opacity="0.5" stroke-width="2" stroke-linecap="round" stroke-linejoin="round"/>
<path fill-rule="evenodd" clip-rule="evenodd" d="M5.22157 8.49236C5.22157 8.12558 5.50787 7.82825 5.86105 7.82825H13.5348C13.888 7.82825 14.1743 8.12558 14.1743 8.49236C14.1743 8.85914 13.888 9.15647 13.5348 9.15647H5.86105C5.50787 9.15647 5.22157 8.85914 5.22157 8.49236Z" fill="white" fill-opacity="0.5"/>
</svg>
