<?xml version="1.0" encoding="utf-8"?>
<!-- Generator: Adobe Illustrator 19.0.0, SVG Export Plug-In . SVG Version: 6.00 Build 0)  -->
<svg width="16" height="17" version="1.1" id="Layer_1" xmlns="http://www.w3.org/2000/svg" xmlns:xlink="http://www.w3.org/1999/xlink" x="0px" y="0px"
	 viewBox="-471 272 16 17" style="enable-background:new -471 272 16 17;" xml:space="preserve">
<style type="text/css">
	.st0{fill:#FFFFFF;}
</style>
<g>
	<path class="st0" d="M-458.5,285.8c0.2,0,0.3-0.1,0.5-0.2s0.2-0.3,0.2-0.5v-9.3c0-0.2-0.1-0.3-0.2-0.5c-0.1-0.1-0.3-0.2-0.5-0.2
		h-2.6c-0.4,0-0.6-0.3-0.6-0.7s0.3-0.7,0.6-0.7h2.6c0.5,0,1,0.2,1.4,0.6c0.4,0.4,0.6,0.9,0.6,1.4v9.3c0,0.5-0.2,1-0.6,1.4
		c-0.4,0.4-0.8,0.6-1.4,0.6h-2.6c-0.4,0-0.6-0.3-0.6-0.7c0-0.4,0.3-0.7,0.6-0.7H-458.5z"/>
	<path class="st0" d="M-460.4,280.5c0-0.2-0.1-0.4-0.2-0.5c0,0,0,0,0,0l-3.4-3.4c-0.3-0.3-0.7-0.3-0.9,0c-0.3,0.3-0.3,0.7,0,0.9
		l2.3,2.3h-6c-0.4,0-0.6,0.3-0.6,0.7c0,0.4,0.3,0.7,0.6,0.7h6l-2.3,2.3c-0.3,0.3-0.3,0.7,0,0.9c0.3,0.3,0.7,0.3,0.9,0l3.4-3.4
		C-460.5,280.9-460.4,280.7-460.4,280.5z"/>
</g>
</svg>
