<?xml version="1.0" encoding="utf-8"?>
<!-- Generator: Adobe Illustrator 19.0.0, SVG Export Plug-In . SVG Version: 6.00 Build 0)  -->
<svg width="16" height="17" version="1.1" id="Layer_1" xmlns="http://www.w3.org/2000/svg" xmlns:xlink="http://www.w3.org/1999/xlink" x="0px" y="0px"
	 viewBox="-386 298 14.9 18" style="enable-background:new -386 298 14.9 18;" xml:space="preserve">
<style type="text/css">
	.st0{fill:#FFFFFF;}
</style>
<g>
	<path class="st0" d="M-377.4,303.3c-0.4,0-0.7,0.3-0.7,0.7s0.3,0.7,0.7,0.7c0.8,0,1.5,0.7,1.5,1.5c0,0.4,0.3,0.7,0.7,0.7
		s0.7-0.3,0.7-0.7C-374.4,304.6-375.7,303.3-377.4,303.3z"/>
	<path class="st0" d="M-372.3,310.2v-3.8c0-2.6-1.8-4.9-4.3-5.6c0.4-1.1-0.1-2.3-1.1-2.7c-1.1-0.4-2.3,0.1-2.7,1.1
		c-0.2,0.5-0.2,1.1,0,1.6c-2.5,0.7-4.3,2.9-4.3,5.6v3.8c-1.1,0.5-1.6,1.9-1,3c0.4,0.8,1.1,1.2,2,1.3h3.7c0,0.8,0.7,1.5,1.5,1.5
		s1.5-0.7,1.5-1.5h3.7c1.2,0,2.2-1,2.2-2.3C-371.1,311.4-371.6,310.6-372.3,310.2z M-378.5,299.5c0.3,0,0.6,0.3,0.6,0.6
		c0,0.3-0.3,0.6-0.6,0.6c-0.3,0-0.6-0.3-0.6-0.6C-379.1,299.8-378.8,299.5-378.5,299.5L-378.5,299.5z M-383.2,306.4
		c0-2.3,1.9-4.2,4.2-4.2l0,0h1c2.3,0,4.2,1.9,4.2,4.2v3.6h-9.4V306.4z M-373.3,313h-10.5c-0.4,0-0.7-0.3-0.7-0.7s0.3-0.7,0.7-0.7
		h10.5c0.4,0,0.7,0.3,0.7,0.7S-372.9,313-373.3,313z"/>
</g>
</svg>
