<?xml version="1.0" encoding="utf-8"?>
<!-- Generator: Adobe Illustrator 19.0.0, SVG Export Plug-In . SVG Version: 6.00 Build 0)  -->
<svg width="16" height="17" version="1.1" id="Layer_1" xmlns="http://www.w3.org/2000/svg" xmlns:xlink="http://www.w3.org/1999/xlink" x="0px" y="0px"
	 viewBox="-471 273 16 16" style="enable-background:new -471 273 16 16;" xml:space="preserve">
<style type="text/css">
	.st0{fill:none;}
	.st1{fill:#FFFFFF;}
</style>
<rect x="-467.3" y="266.2" class="st0" width="15.3" height="15.9"/>
<g>
	<path class="st1" d="M-465,274.6c0.1,0.3,0,0.7-0.3,0.9c-0.9,0.4-1.6,1-2.2,1.8c-0.6,0.8-1,1.7-1.2,2.6c-0.2,1-0.1,1.9,0.2,2.9
		c0.3,0.9,0.8,1.8,1.4,2.5s1.5,1.2,2.4,1.5s1.9,0.3,2.8,0.1c0.9-0.2,1.8-0.6,2.5-1.2c0.7-0.6,1.3-1.4,1.7-2.3
		c0.1-0.3,0.5-0.5,0.8-0.4c0.3,0.1,0.5,0.5,0.3,0.9c-0.4,1.1-1.1,2.1-2,2.8c-0.9,0.8-1.9,1.3-3.1,1.5c-1.1,0.2-2.3,0.2-3.4-0.2
		s-2.1-1-2.9-1.8c-0.8-0.8-1.4-1.9-1.8-3c-0.3-1.1-0.4-2.3-0.2-3.5c0.2-1.2,0.7-2.3,1.4-3.2c0.7-0.9,1.6-1.7,2.7-2.1
		C-465.5,274.2-465.1,274.3-465,274.6z"/>
	<path class="st1" d="M-463.5,273.9c0.1-0.1,0.3-0.2,0.5-0.2c0.9,0,1.8,0.2,2.7,0.6c0.9,0.4,1.6,0.9,2.3,1.6
		c0.7,0.7,1.2,1.5,1.5,2.4c0.4,0.9,0.5,1.8,0.5,2.8c0,0.4-0.3,0.7-0.6,0.7h-6.4c-0.4,0-0.6-0.3-0.6-0.7v-6.6
		C-463.6,274.2-463.6,274-463.5,273.9z M-462.4,275.1v5.3h5.1c-0.1-0.6-0.2-1.1-0.4-1.6c-0.3-0.7-0.7-1.4-1.2-1.9
		c-0.5-0.6-1.2-1-1.9-1.3C-461.3,275.3-461.8,275.1-462.4,275.1z"/>
</g>
</svg>
