<?xml version="1.0" encoding="utf-8"?>
<!-- Generator: Adobe Illustrator 19.0.0, SVG Export Plug-In . SVG Version: 6.00 Build 0)  -->
<svg width="19" height="20" version="1.1" id="Layer_1" xmlns="http://www.w3.org/2000/svg" xmlns:xlink="http://www.w3.org/1999/xlink" x="0px" y="0px"
	 viewBox="-471 272 16 17" style="enable-background:new -471 272 16 17;" xml:space="preserve">
<style type="text/css">
	.st0{fill:#3056D3;}
</style>
<g>
	<path class="st0" d="M-468.3,285.4c0.1,0.2,0.3,0.2,0.5,0.2h9.3c0.2,0,0.3-0.1,0.5-0.2c0.1-0.1,0.2-0.3,0.2-0.5v-2.6
		c0-0.4,0.3-0.6,0.7-0.6s0.7,0.3,0.7,0.6v2.6c0,0.5-0.2,1-0.6,1.4s-0.9,0.6-1.4,0.6h-9.3c-0.5,0-1-0.2-1.4-0.6s-0.6-0.8-0.6-1.4
		v-2.6c0-0.4,0.3-0.6,0.7-0.6c0.4,0,0.7,0.3,0.7,0.6v2.6"/>
	<path class="st0" d="M-463.2,274.1c-0.2,0-0.4,0.1-0.5,0.2l0,0l-3.4,3.4c-0.3,0.3-0.3,0.7,0,0.9c0.3,0.3,0.7,0.3,0.9,0l2.3-2.3v6
		c0,0.4,0.3,0.6,0.7,0.6c0.4,0,0.7-0.3,0.7-0.6v-6l2.3,2.3c0.3,0.3,0.7,0.3,0.9,0c0.3-0.3,0.3-0.7,0-0.9l-3.4-3.4
		C-462.8,274.3-463,274.1-463.2,274.1z"/>
</g>
</svg>
