<svg width="16" height="18" viewBox="0 0 16 18" fill="none" xmlns="http://www.w3.org/2000/svg">
<path d="M5.38457 5.25V2.25M10.6923 5.25V2.25M4.72111 8.25H11.3557M3.39418 15.75H12.6826C13.0346 15.75 13.3721 15.592 13.6209 15.3107C13.8698 15.0294 14.0096 14.6478 14.0096 14.25V5.25C14.0096 4.85218 13.8698 4.47064 13.6209 4.18934C13.3721 3.90804 13.0346 3.75 12.6826 3.75H3.39418C3.04226 3.75 2.70475 3.90804 2.45591 4.18934C2.20706 4.47064 2.06726 4.85218 2.06726 5.25V14.25C2.06726 14.6478 2.20706 15.0294 2.45591 15.3107C2.70475 15.592 3.04226 15.75 3.39418 15.75Z" stroke="#929DA7" stroke-width="2" stroke-linecap="round" stroke-linejoin="round"/>
</svg>
