<?xml version="1.0" encoding="UTF-8"?>
<svg xmlns="http://www.w3.org/2000/svg" xmlns:xlink="http://www.w3.org/1999/xlink" width="20px" height="20px" viewBox="0 0 20 20" version="1.1">
<g id="surface1">
<path style=" stroke:none;fill-rule:nonzero;fill:rgb(25.098039%,65.098039%,49.411765%);fill-opacity:1;" d="M 19.539062 10.003906 C 19.539062 15.269531 15.269531 19.539062 10.003906 19.539062 C 4.738281 19.539062 0.46875 15.269531 0.46875 10.003906 C 0.46875 4.738281 4.738281 0.46875 10.003906 0.46875 C 15.269531 0.46875 19.539062 4.738281 19.539062 10.003906 Z M 19.539062 10.003906 "/>
<path style=" stroke:none;fill-rule:nonzero;fill:rgb(99.607843%,99.607843%,99.607843%);fill-opacity:1;" d="M 10.042969 16.527344 C 7.753906 16.503906 5.980469 14.949219 5.542969 12.9375 C 5.347656 12.027344 5.433594 11.132812 5.761719 10.261719 C 6.273438 8.921875 6.945312 7.667969 7.707031 6.460938 C 8.375 5.402344 9.046875 4.351562 9.722656 3.300781 C 9.800781 3.183594 9.871094 3.058594 9.949219 2.933594 C 9.988281 2.871094 10.027344 2.871094 10.066406 2.933594 C 10.074219 2.949219 10.089844 2.964844 10.097656 2.980469 C 10.820312 4.164062 11.59375 5.308594 12.324219 6.492188 C 12.984375 7.558594 13.601562 8.65625 14.074219 9.824219 C 14.261719 10.285156 14.449219 10.742188 14.519531 11.242188 C 14.714844 12.613281 14.386719 13.835938 13.5 14.902344 C 12.675781 15.890625 11.601562 16.417969 10.316406 16.511719 C 10.207031 16.519531 10.097656 16.527344 10.042969 16.527344 Z M 9.753906 15.09375 C 10.222656 15.09375 10.664062 14.988281 11.070312 14.753906 C 11.863281 14.292969 12.316406 13.617188 12.347656 12.683594 C 12.347656 12.613281 12.378906 12.496094 12.324219 12.488281 C 12.238281 12.472656 12.230469 12.589844 12.199219 12.652344 C 11.746094 13.4375 11.0625 13.875 10.160156 13.917969 C 8.75 13.972656 7.644531 12.820312 7.675781 11.476562 C 7.675781 11.421875 7.675781 11.375 7.675781 11.320312 C 7.675781 11.304688 7.667969 11.28125 7.660156 11.273438 C 7.628906 11.257812 7.613281 11.28125 7.597656 11.304688 C 7.574219 11.328125 7.558594 11.359375 7.542969 11.382812 C 7.0625 12.175781 7.023438 13 7.488281 13.804688 C 7.980469 14.667969 8.765625 15.0625 9.753906 15.09375 Z M 9.753906 15.09375 "/>
</g>
</svg>
