<?xml version="1.0" encoding="UTF-8"?>
<svg xmlns="http://www.w3.org/2000/svg" xmlns:xlink="http://www.w3.org/1999/xlink" width="20px" height="20px" viewBox="0 0 20 20" version="1.1">
<defs>
<filter id="alpha" filterUnits="objectBoundingBox" x="0%" y="0%" width="100%" height="100%">
  <feColorMatrix type="matrix" in="SourceGraphic" values="0 0 0 0 1 0 0 0 0 1 0 0 0 0 1 0 0 0 1 0"/>
</filter>
<mask id="mask0">
  <g filter="url(#alpha)">
<rect x="0" y="0" width="20" height="20" style="fill:rgb(0%,0%,0%);fill-opacity:0.2;stroke:none;"/>
  </g>
</mask>
<clipPath id="clip1">
  <rect x="0" y="0" width="20" height="20"/>
</clipPath>
<g id="surface5" clip-path="url(#clip1)">
<path style=" stroke:none;fill-rule:nonzero;fill:rgb(13.72549%,12.156863%,12.54902%);fill-opacity:1;" d="M 10 7.5 C 10 9.226562 8.601562 10.625 6.875 10.625 C 5.148438 10.625 3.75 9.226562 3.75 7.5 C 3.75 5.773438 5.148438 4.375 6.875 4.375 C 8.601562 4.375 10 5.773438 10 7.5 Z M 10 7.5 "/>
</g>
<mask id="mask1">
  <g filter="url(#alpha)">
<rect x="0" y="0" width="20" height="20" style="fill:rgb(0%,0%,0%);fill-opacity:0.2;stroke:none;"/>
  </g>
</mask>
<clipPath id="clip2">
  <rect x="0" y="0" width="20" height="20"/>
</clipPath>
<g id="surface8" clip-path="url(#clip2)">
<path style=" stroke:none;fill-rule:nonzero;fill:rgb(13.72549%,12.156863%,12.54902%);fill-opacity:1;" d="M 15.21875 11.25 C 15.21875 8.84375 13.15625 6.875 10.625 6.875 C 8.46875 6.875 6.6875 8.28125 6.1875 10.1875 C 4.8125 10.375 3.75 11.53125 3.75 12.875 C 3.75 14.375 5.03125 15.625 6.625 15.625 L 15.21875 15.625 C 16.5 15.625 17.5 14.65625 17.5 13.4375 C 17.5 12.21875 16.46875 11.25 15.21875 11.25 Z M 15.21875 11.25 "/>
</g>
<mask id="mask2">
  <g filter="url(#alpha)">
<rect x="0" y="0" width="20" height="20" style="fill:rgb(0%,0%,0%);fill-opacity:0.2;stroke:none;"/>
  </g>
</mask>
<clipPath id="clip3">
  <rect x="0" y="0" width="20" height="20"/>
</clipPath>
<g id="surface11" clip-path="url(#clip3)">
<path style=" stroke:none;fill-rule:nonzero;fill:rgb(13.72549%,12.156863%,12.54902%);fill-opacity:1;" d="M 10 6.875 C 10 6.5625 9.9375 6.25 9.875 5.96875 C 7.9375 6.15625 6.34375 7.5 5.875 9.25 C 5.625 9.28125 5.375 9.375 5.125 9.46875 C 5.625 9.8125 6.21875 10 6.875 10 C 8.59375 10 10 8.59375 10 6.875 Z M 10 6.875 "/>
</g>
</defs>
<g id="surface1">
<path style=" stroke:none;fill-rule:nonzero;fill:rgb(30.980392%,36.470588%,45.098039%);fill-opacity:1;" d="M 20 10 C 20 15.523438 15.523438 20 10 20 C 4.476562 20 0 15.523438 0 10 C 0 4.476562 4.476562 0 10 0 C 15.523438 0 20 4.476562 20 10 Z M 20 10 "/>
<use xlink:href="#surface5" mask="url(#mask0)"/>
<path style=" stroke:none;fill-rule:nonzero;fill:rgb(100%,64.705882%,0%);fill-opacity:1;" d="M 10 6.875 C 10 8.601562 8.601562 10 6.875 10 C 5.148438 10 3.75 8.601562 3.75 6.875 C 3.75 5.148438 5.148438 3.75 6.875 3.75 C 8.601562 3.75 10 5.148438 10 6.875 Z M 10 6.875 "/>
<use xlink:href="#surface8" mask="url(#mask1)"/>
<use xlink:href="#surface11" mask="url(#mask2)"/>
<path style=" stroke:none;fill-rule:nonzero;fill:rgb(100%,100%,100%);fill-opacity:1;" d="M 15.21875 10.625 C 15.21875 8.21875 13.15625 6.25 10.625 6.25 C 8.46875 6.25 6.6875 7.65625 6.1875 9.5625 C 4.8125 9.75 3.75 10.90625 3.75 12.25 C 3.75 13.75 5.03125 15 6.625 15 L 15.21875 15 C 16.5 15 17.5 14.03125 17.5 12.8125 C 17.5 11.59375 16.46875 10.625 15.21875 10.625 Z M 15.21875 10.625 "/>
</g>
</svg>
