<?xml version="1.0" encoding="UTF-8"?>
<svg xmlns="http://www.w3.org/2000/svg" xmlns:xlink="http://www.w3.org/1999/xlink" width="30px" height="30px" viewBox="0 0 30 30" version="1.1">
<g id="surface1">
<path style=" stroke:none;fill-rule:nonzero;fill:rgb(53.72549%,76.862745%,16.078431%);fill-opacity:1;" d="M 29.960938 16.070312 C 29.988281 15.714844 30 15.359375 30 15 C 30 6.714844 23.285156 0 15 0 C 6.714844 0 0 6.714844 0 15 C 0 21.902344 4.660156 27.710938 11.003906 29.460938 Z M 29.960938 16.070312 "/>
<path style=" stroke:none;fill-rule:nonzero;fill:rgb(43.921569%,61.960784%,12.941176%);fill-opacity:1;" d="M 29.960938 16.070312 L 18.457031 4.566406 L 6.976562 25.433594 L 11.003906 29.460938 C 12.277344 29.8125 13.617188 30 15 30 C 22.925781 30 29.414062 23.855469 29.960938 16.070312 Z M 29.960938 16.070312 "/>
<path style=" stroke:none;fill-rule:nonzero;fill:rgb(100%,100%,100%);fill-opacity:1;" d="M 16.308594 19.566406 L 14.984375 4.566406 L 6.976562 4.566406 L 6.976562 18.261719 Z M 16.308594 19.566406 "/>
<path style=" stroke:none;fill-rule:nonzero;fill:rgb(90.980392%,90.196078%,90.196078%);fill-opacity:1;" d="M 23.023438 18.261719 L 23.023438 9.128906 L 19.761719 7.824219 L 18.457031 4.566406 L 14.984375 4.566406 L 15.003906 19.566406 Z M 23.023438 18.261719 "/>
<path style=" stroke:none;fill-rule:nonzero;fill:rgb(100%,100%,100%);fill-opacity:1;" d="M 18.457031 9.128906 L 18.457031 4.566406 L 23.023438 9.128906 Z M 18.457031 9.128906 "/>
<path style=" stroke:none;fill-rule:nonzero;fill:rgb(70.196078%,85.490196%,45.098039%);fill-opacity:1;" d="M 6.976562 18.261719 L 23.023438 18.261719 L 23.023438 25.433594 L 6.976562 25.433594 Z M 6.976562 18.261719 "/>
<path style=" stroke:none;fill-rule:nonzero;fill:rgb(100%,100%,100%);fill-opacity:1;" d="M 13.324219 20.792969 L 12.867188 21.332031 C 12.664062 21.085938 12.363281 20.929688 12.089844 20.929688 C 11.597656 20.929688 11.222656 21.320312 11.222656 21.832031 C 11.222656 22.347656 11.597656 22.742188 12.089844 22.742188 C 12.351562 22.742188 12.652344 22.601562 12.867188 22.378906 L 13.328125 22.867188 C 12.996094 23.210938 12.503906 23.433594 12.046875 23.433594 C 11.113281 23.433594 10.417969 22.75 10.417969 21.839844 C 10.417969 20.945312 11.128906 20.269531 12.074219 20.269531 C 12.535156 20.269531 13.015625 20.472656 13.324219 20.792969 Z M 13.324219 20.792969 "/>
<path style=" stroke:none;fill-rule:nonzero;fill:rgb(100%,100%,100%);fill-opacity:1;" d="M 16.21875 20.605469 L 15.921875 21.222656 C 15.59375 21.03125 15.179688 20.898438 14.925781 20.898438 C 14.722656 20.898438 14.585938 20.972656 14.585938 21.125 C 14.585938 21.660156 16.226562 21.355469 16.226562 22.476562 C 16.226562 23.097656 15.675781 23.425781 14.984375 23.425781 C 14.464844 23.425781 13.933594 23.230469 13.566406 22.929688 L 13.871094 22.324219 C 14.191406 22.601562 14.667969 22.789062 14.992188 22.789062 C 15.242188 22.789062 15.398438 22.695312 15.398438 22.519531 C 15.398438 21.96875 13.757812 22.296875 13.757812 21.195312 C 13.757812 20.625 14.25 20.261719 14.992188 20.261719 C 15.441406 20.261719 15.898438 20.398438 16.21875 20.605469 Z M 16.21875 20.605469 "/>
<path style=" stroke:none;fill-rule:nonzero;fill:rgb(100%,100%,100%);fill-opacity:1;" d="M 17.660156 23.398438 L 16.453125 20.296875 L 17.292969 20.296875 L 18.089844 22.578125 L 18.882812 20.296875 L 19.695312 20.296875 L 18.472656 23.398438 Z M 17.660156 23.398438 "/>
</g>
</svg>
