<?xml version="1.0" encoding="UTF-8"?>
<svg xmlns="http://www.w3.org/2000/svg" xmlns:xlink="http://www.w3.org/1999/xlink" width="30px" height="30px" viewBox="0 0 30 30" version="1.1">
<g id="surface1">
<path style=" stroke:none;fill-rule:nonzero;fill:rgb(100%,100%,100%);fill-opacity:1;" d="M 2.625 28.125 L 2.625 1.875 L 16.34375 1.875 L 22.875 8.40625 L 22.875 28.125 Z M 2.625 28.125 "/>
<path style=" stroke:none;fill-rule:nonzero;fill:rgb(47.058824%,54.509804%,61.176471%);fill-opacity:1;" d="M 16.191406 2.25 L 22.5 8.558594 L 22.5 27.75 L 3 27.75 L 3 2.25 L 16.191406 2.25 M 16.5 1.5 L 2.25 1.5 L 2.25 28.5 L 23.25 28.5 L 23.25 8.25 Z M 16.5 1.5 "/>
<path style=" stroke:none;fill-rule:nonzero;fill:rgb(100%,100%,100%);fill-opacity:1;" d="M 16.125 8.625 L 16.125 1.875 L 16.34375 1.875 L 22.875 8.40625 L 22.875 8.625 Z M 16.125 8.625 "/>
<path style=" stroke:none;fill-rule:nonzero;fill:rgb(47.058824%,54.509804%,61.176471%);fill-opacity:1;" d="M 16.5 2.558594 L 22.191406 8.25 L 16.5 8.25 L 16.5 2.558594 M 16.5 1.5 L 15.75 1.5 L 15.75 9 L 23.25 9 L 23.25 8.25 Z M 16.5 1.5 "/>
<path style=" stroke:none;fill-rule:nonzero;fill:rgb(72.941176%,87.843137%,74.117647%);fill-opacity:1;" d="M 5.25 6.75 L 8.25 6.75 L 8.25 6 L 5.25 6 Z M 10.5 6 L 10.5 6.75 L 15 6.75 L 15 6 Z M 5.25 8.25 L 8.25 8.25 L 8.25 7.5 L 5.25 7.5 Z M 10.5 7.5 L 10.5 8.25 L 15 8.25 L 15 7.5 Z M 5.25 9.75 L 8.25 9.75 L 8.25 9 L 5.25 9 Z M 17.25 9 L 17.25 9.75 L 20.25 9.75 L 20.25 9 Z M 10.5 9.75 L 15 9.75 L 15 9 L 10.5 9 Z M 5.25 22.5 L 8.25 22.5 L 8.25 21.75 L 5.25 21.75 Z M 17.25 21.75 L 17.25 22.5 L 20.25 22.5 L 20.25 21.75 Z M 10.5 22.5 L 15 22.5 L 15 21.75 L 10.5 21.75 Z M 5.25 24 L 8.25 24 L 8.25 23.25 L 5.25 23.25 Z M 17.25 23.25 L 17.25 24 L 20.25 24 L 20.25 23.25 Z M 10.5 24 L 15 24 L 15 23.25 L 10.5 23.25 Z M 5.25 25.5 L 8.25 25.5 L 8.25 24.75 L 5.25 24.75 Z M 17.25 24.75 L 17.25 25.5 L 20.25 25.5 L 20.25 24.75 Z M 10.5 25.5 L 15 25.5 L 15 24.75 L 10.5 24.75 Z M 10.5 25.5 "/>
<path style=" stroke:none;fill-rule:nonzero;fill:rgb(36.862745%,61.176471%,46.27451%);fill-opacity:1;" d="M 2.25 10.5 L 23.25 10.5 L 23.25 21 L 2.25 21 Z M 2.25 10.5 "/>
<path style=" stroke:none;fill-rule:nonzero;fill:rgb(72.941176%,87.843137%,74.117647%);fill-opacity:1;" d="M 23.25 21 L 19.5 21 L 23.25 16.078125 Z M 23.25 21 "/>
<path style=" stroke:none;fill-rule:nonzero;fill:rgb(100%,100%,100%);fill-opacity:1;" d="M 8.820312 13.800781 L 8.820312 14.207031 L 7.472656 14.207031 L 7.472656 13.863281 C 7.472656 13.238281 6.894531 13.109375 6.636719 13.109375 C 6.300781 13.109375 5.804688 13.191406 5.804688 13.953125 L 5.804688 17.648438 C 5.804688 17.859375 5.8125 18.390625 6.625 18.390625 C 7.390625 18.390625 7.472656 17.800781 7.472656 17.660156 L 7.472656 17.304688 L 8.820312 17.304688 L 8.820312 17.75 C 8.820312 18.34375 8.222656 19.425781 6.675781 19.425781 C 6.421875 19.425781 4.453125 19.398438 4.453125 17.71875 L 4.453125 13.738281 C 4.453125 13 5.082031 12.074219 6.652344 12.074219 C 8.554688 12.074219 8.820312 13.398438 8.820312 13.800781 Z M 13.257812 12.074219 C 11.011719 12.074219 10.941406 13.785156 10.941406 14.054688 C 10.941406 15.457031 11.828125 15.730469 12.410156 15.914062 L 13.375 16.214844 C 13.976562 16.429688 14.15625 16.46875 14.15625 17.3125 C 14.15625 18.1875 13.902344 18.386719 13.175781 18.386719 C 12.40625 18.386719 12.226562 17.960938 12.226562 17.648438 L 12.226562 17.324219 L 10.875 17.324219 L 10.875 17.707031 C 10.875 18.960938 12.304688 19.421875 13.175781 19.421875 C 14.988281 19.421875 15.507812 18.433594 15.507812 17.300781 C 15.507812 15.851562 14.875 15.585938 14.089844 15.324219 L 13.058594 15.007812 C 12.277344 14.769531 12.324219 14.503906 12.3125 14.402344 C 12.300781 14.304688 12.292969 14.183594 12.292969 14.042969 C 12.292969 13.101562 13.019531 13.109375 13.203125 13.109375 C 14.042969 13.109375 14.15625 13.746094 14.15625 13.984375 L 14.15625 14.214844 L 15.507812 14.214844 L 15.507812 13.710938 C 15.503906 13.160156 14.914062 12.074219 13.257812 12.074219 Z M 20.253906 12.136719 L 19.167969 17.183594 L 19.140625 17.183594 L 18.070312 12.136719 L 16.640625 12.136719 L 18.558594 19.363281 L 19.75 19.363281 L 21.683594 12.136719 Z M 20.253906 12.136719 "/>
<path style=" stroke:none;fill-rule:nonzero;fill:rgb(83.921569%,89.019608%,92.941176%);fill-opacity:1;" d="M 22.5 20.25 L 22.5 27.75 L 20.25 27.75 L 20.25 28.5 L 23.25 28.5 L 23.25 20.25 Z M 22.5 20.25 "/>
<path style=" stroke:none;fill-rule:nonzero;fill:rgb(96.862745%,56.078431%,56.078431%);fill-opacity:1;" d="M 22.125 29.625 L 22.125 23.625 L 18.78125 23.625 L 24 17.101562 L 29.21875 23.625 L 25.875 23.625 L 25.875 29.625 Z M 22.125 29.625 "/>
<path style=" stroke:none;fill-rule:nonzero;fill:rgb(78.039216%,26.27451%,26.27451%);fill-opacity:1;" d="M 24 17.699219 L 28.4375 23.25 L 25.5 23.25 L 25.5 29.25 L 22.5 29.25 L 22.5 23.25 L 19.5625 23.25 L 24 17.699219 M 24 16.5 L 18 24 L 21.75 24 L 21.75 30 L 26.25 30 L 26.25 24 L 30 24 Z M 24 16.5 "/>
</g>
</svg>
