<?xml version="1.0" encoding="utf-8"?>
<!-- Generator: Adobe Illustrator 19.0.0, SVG Export Plug-In . SVG Version: 6.00 Build 0)  -->
<svg version="1.1" id="Layer_1" xmlns="http://www.w3.org/2000/svg" xmlns:xlink="http://www.w3.org/1999/xlink" x="0px" y="0px"
	 viewBox="-426 129 512 512" style="enable-background:new -426 129 512 512;" xml:space="preserve">
<style type="text/css">
	.st0{fill:#198754;}
	.st1{fill:#FFFFFF;}
</style>
<title>database-cloud-flat</title>
<path class="st0" d="M-426,385c0-141.4,114.6-256,256-256S86,243.6,86,385S-28.6,641-170,641S-426,526.4-426,385z"/>
<path class="st1" d="M-71.5,454.1c-1.8-17.3-16.2-30.8-33.5-30.8c-10.9,0.1-21,5.4-27.3,14.3c-11.1-1.9-21.8,4.9-25,15.7
	c-8.1,4.9-13.1,13.7-13.1,23.1c0,14.8,11.7,26.8,26.1,26.8h45.3c0.2,0,0.5,0,0.7,0c0.3,0,0.5,0,0.8,0h18.1
	c13.5,0,24.6-11.3,24.6-25.2C-54.6,467.3-61.4,457.7-71.5,454.1L-71.5,454.1z M-79.2,494.8h-18.3h-0.7h-45.9
	c-9.8,0-17.7-8.2-17.7-18.3c0-7,3.9-13.4,10.2-16.5l1.8-0.9l0.4-2c1.3-6.5,7-11.2,13.6-11.3c1.5,0,2.9,0.2,4.3,0.7l3.3,1.1l1.7-3
	c4.4-7.9,12.7-12.8,21.7-12.8c13.7,0,25.1,11.6,25.2,25.8l0.1,3.4l3.4,0.7c7.8,1.6,13.3,8.5,13.3,16.5
	C-63.1,487.2-70.3,494.8-79.2,494.8L-79.2,494.8z"/>
<path class="st1" d="M-166.7,443.6c5.6-11,16.6-18.2,28.9-18.9c16.4-17.2,43.2-18.8,61.6-3.7c0.4-0.4,0.9-0.7,1.2-1.1v-39.6
	c-5.5,3.8-12.7,7.1-21.1,10c-17.7,6.2-42.3,10.5-73,11.4c-3.7,0.1-7.3,0.2-11,0.2c-3.6,0-7.3-0.1-11-0.2
	c-30.9-0.9-55.5-5.2-73.2-11.4c-8.3-2.8-15.5-6.1-21-9.9V420c12,12.5,52.1,24,105.1,24C-175.6,444-171.2,443.8-166.7,443.6
	L-166.7,443.6z"/>
<path class="st1" d="M-190.1,388.6c1.4,0,2.7,0.1,4.1,0.1c1.9,0,3.9,0,5.8,0s3.9,0,5.8,0c1.4,0,2.8-0.1,4.1-0.1h1.5
	c47.3-1.5,82.6-12.3,93.7-23.8v-39.6c-20.5,14.1-63.7,21.5-105.1,21.5s-84.7-7.4-105.1-21.5v39.5c11.1,11.6,46.4,22.3,93.7,23.8
	L-190.1,388.6L-190.1,388.6z"/>
<path class="st1" d="M-75.1,310.1v-9.7c0-0.7-0.2-1.3-0.5-1.9c-4.7-18.1-41-35.9-104.6-35.9c-63.4,0-99.7,17.7-104.5,35.8
	c-0.4,0.6-0.6,1.3-0.6,2.1v9.7c11.9,12.5,51.8,24,105.1,24S-87,322.7-75.1,310.1L-75.1,310.1z"/>
<path class="st1" d="M-182.9,476.4c0-6.9,1.8-13.6,5.3-19.5h-2.5c-51.9,0-87.8-9.6-105.1-21.9v34.5c0,0.7,0.2,1.3,0.5,1.9
	c5,20.6,49.4,36,104.6,36c4,0,7.9-0.1,11.8-0.3C-177.6,499.6-182.9,488.3-182.9,476.4L-182.9,476.4z"/>
</svg>
