<?xml version="1.0" encoding="UTF-8"?>
<svg xmlns="http://www.w3.org/2000/svg" xmlns:xlink="http://www.w3.org/1999/xlink" width="30px" height="30px" viewBox="0 0 30 30" version="1.1">
<g id="surface1">
<path style=" stroke:none;fill-rule:nonzero;fill:rgb(9.803922%,52.941176%,32.941176%);fill-opacity:1;" d="M 0 15 C 0 6.714844 6.714844 0 15 0 C 23.285156 0 30 6.714844 30 15 C 30 23.285156 23.285156 30 15 30 C 6.714844 30 0 23.285156 0 15 Z M 0 15 "/>
<path style=" stroke:none;fill-rule:nonzero;fill:rgb(100%,100%,100%);fill-opacity:1;" d="M 20.773438 19.046875 C 20.664062 18.035156 19.820312 17.242188 18.808594 17.242188 C 18.171875 17.25 17.578125 17.5625 17.210938 18.082031 C 16.558594 17.972656 15.929688 18.367188 15.742188 19 C 15.269531 19.289062 14.976562 19.804688 14.976562 20.355469 C 14.976562 21.222656 15.660156 21.925781 16.507812 21.925781 L 19.160156 21.925781 C 19.171875 21.925781 19.1875 21.925781 19.203125 21.925781 C 19.21875 21.925781 19.230469 21.925781 19.25 21.925781 L 20.308594 21.925781 C 21.101562 21.925781 21.75 21.265625 21.75 20.449219 C 21.761719 19.820312 21.363281 19.257812 20.773438 19.046875 Z M 20.320312 21.433594 L 16.515625 21.433594 C 15.945312 21.433594 15.480469 20.953125 15.480469 20.359375 C 15.480469 19.953125 15.710938 19.578125 16.078125 19.394531 L 16.183594 19.34375 L 16.207031 19.226562 C 16.28125 18.84375 16.617188 18.570312 17.003906 18.5625 C 17.09375 18.5625 17.171875 18.574219 17.257812 18.601562 L 17.449219 18.667969 L 17.550781 18.492188 C 17.808594 18.03125 18.292969 17.742188 18.820312 17.742188 C 19.625 17.742188 20.292969 18.421875 20.296875 19.253906 L 20.304688 19.453125 L 20.503906 19.492188 C 20.960938 19.585938 21.28125 19.992188 21.28125 20.460938 C 21.265625 20.988281 20.84375 21.433594 20.320312 21.433594 Z M 20.320312 21.433594 "/>
<path style=" stroke:none;fill-rule:nonzero;fill:rgb(100%,100%,100%);fill-opacity:1;" d="M 15.195312 18.433594 C 15.523438 17.789062 16.164062 17.367188 16.886719 17.328125 C 17.847656 16.320312 19.417969 16.226562 20.496094 17.109375 C 20.519531 17.085938 20.546875 17.070312 20.566406 17.046875 L 20.566406 14.726562 C 20.242188 14.945312 19.820312 15.140625 19.328125 15.3125 C 18.292969 15.671875 16.851562 15.925781 15.054688 15.976562 C 14.835938 15.984375 14.625 15.992188 14.40625 15.992188 C 14.195312 15.992188 13.980469 15.984375 13.765625 15.976562 C 11.953125 15.925781 10.511719 15.671875 9.476562 15.3125 C 8.988281 15.148438 8.566406 14.953125 8.242188 14.730469 L 8.242188 17.050781 C 8.945312 17.78125 11.296875 18.457031 14.402344 18.457031 C 14.671875 18.457031 14.929688 18.445312 15.195312 18.433594 Z M 15.195312 18.433594 "/>
<path style=" stroke:none;fill-rule:nonzero;fill:rgb(100%,100%,100%);fill-opacity:1;" d="M 13.820312 15.210938 C 13.90625 15.210938 13.980469 15.21875 14.0625 15.21875 C 14.171875 15.21875 14.289062 15.21875 14.402344 15.21875 C 14.515625 15.21875 14.632812 15.21875 14.742188 15.21875 C 14.824219 15.21875 14.90625 15.210938 14.984375 15.210938 L 15.070312 15.210938 C 17.84375 15.125 19.910156 14.492188 20.5625 13.816406 L 20.5625 11.496094 C 19.359375 12.320312 16.828125 12.757812 14.402344 12.757812 C 11.976562 12.757812 9.441406 12.320312 8.246094 11.496094 L 8.246094 13.8125 C 8.894531 14.492188 10.964844 15.117188 13.734375 15.203125 Z M 13.820312 15.210938 "/>
<path style=" stroke:none;fill-rule:nonzero;fill:rgb(100%,100%,100%);fill-opacity:1;" d="M 20.5625 10.609375 L 20.5625 10.042969 C 20.5625 10.003906 20.546875 9.96875 20.53125 9.933594 C 20.257812 8.871094 18.128906 7.828125 14.402344 7.828125 C 10.6875 7.828125 8.5625 8.867188 8.28125 9.925781 C 8.257812 9.960938 8.242188 10.003906 8.242188 10.050781 L 8.242188 10.617188 C 8.941406 11.351562 11.28125 12.023438 14.402344 12.023438 C 17.523438 12.023438 19.863281 11.351562 20.5625 10.609375 Z M 20.5625 10.609375 "/>
<path style=" stroke:none;fill-rule:nonzero;fill:rgb(100%,100%,100%);fill-opacity:1;" d="M 14.242188 20.355469 C 14.242188 19.953125 14.351562 19.558594 14.554688 19.210938 L 14.40625 19.210938 C 11.367188 19.210938 9.265625 18.648438 8.25 17.929688 L 8.25 19.953125 C 8.25 19.992188 8.261719 20.027344 8.28125 20.0625 C 8.570312 21.269531 11.175781 22.171875 14.40625 22.171875 C 14.640625 22.171875 14.871094 22.164062 15.101562 22.152344 C 14.554688 21.714844 14.242188 21.054688 14.242188 20.355469 Z M 14.242188 20.355469 "/>
</g>
</svg>
